<?xml version="1.0" encoding="UTF-8"?>
<svg version="1.1" xmlns="http://www.w3.org/2000/svg" viewBox="0 0 1024 1024" width="100" height="100">
<path d="M0 0 C337.92 0 675.84 0 1024 0 C1024 337.92 1024 675.84 1024 1024 C686.08 1024 348.16 1024 0 1024 C0 686.08 0 348.16 0 0 Z " fill="#ADADAD" transform="translate(0,0)"/>
<path d="M0 0 C10.72665674 -0.38224167 20.52417213 0.39065997 30.98144531 3.078125 C31.64998535 3.24441406 32.31852539 3.41070312 33.00732422 3.58203125 C66.33238831 12.00099481 91.65719605 32.77917606 109.65527344 61.83984375 C112.93645835 67.37774936 115.55206859 73.12517507 117.98144531 79.078125 C118.45195313 80.21507812 118.92246094 81.35203125 119.40722656 82.5234375 C131.27731528 113.26661714 127.09838057 147.67566178 114.16894531 177.390625 C102.17319056 203.82566216 78.90957414 224.35045064 51.98144531 235.078125 C37.91099292 240.04652123 24.33110249 243.45609466 9.35644531 243.328125 C8.20998535 243.32135742 7.06352539 243.31458984 5.88232422 243.30761719 C-24.00483667 242.94524642 -51.17810493 234.75851253 -74.01855469 215.078125 C-75.19998047 214.09585938 -75.19998047 214.09585938 -76.40527344 213.09375 C-80.56647275 209.57888007 -80.56647275 209.57888007 -82.01855469 208.078125 C-82.01855469 207.418125 -82.01855469 206.758125 -82.01855469 206.078125 C-82.67855469 206.078125 -83.33855469 206.078125 -84.01855469 206.078125 C-106.75074055 179.6756383 -118.04763199 144.67067647 -115.89404297 110.078125 C-115.09311818 99.59701341 -112.66215607 89.91826171 -109.01855469 80.078125 C-108.66132324 79.10407715 -108.66132324 79.10407715 -108.296875 78.11035156 C-97.19918602 48.6582285 -73.68214757 23.15772783 -45.01708984 10.17138672 C-30.62287126 4.00953889 -15.62370008 0.60469086 0 0 Z " fill="#3C3D3E" transform="translate(486.0185546875,223.921875)"/>
<path d="M0 0 C4.55050026 0 6.75696127 2.38428955 9.9296875 5.26171875 C13.0018652 7.84118871 16.36065083 9.88649019 19.765625 11.99609375 C21.36664063 12.98802734 21.36664063 12.98802734 23 14 C23.91442871 14.40234863 24.82885742 14.80469727 25.77099609 15.21923828 C29.08142286 16.86829248 31.43934863 18.31686162 34 21 C35.49057655 26.34211449 35.31861714 31.5174488 35.125 37 C35.10178799 39.16355271 35.09383507 41.32682199 35.08639526 43.49047852 C35.07115764 45.45361708 35.02121365 47.41639669 34.96923828 49.37890625 C35.00011575 53.01362565 35.4258401 56.41527617 36 60 C36.10751986 62.6793948 36.0470821 65.31632049 36 68 C35.15179688 68.32871094 34.30359375 68.65742188 33.4296875 68.99609375 C27.32640979 71.47093933 21.8741237 73.93475864 16.51611328 77.79711914 C9.36564697 82.92026911 9.36564697 82.92026911 5.390625 83.15234375 C2.67357239 82.4109258 0.47985532 81.33786531 -2 80 C-3.10214844 79.51273437 -4.20429688 79.02546875 -5.33984375 78.5234375 C-17.46850902 72.96611205 -26.54612411 64.72477419 -35.76196289 55.25341797 C-38.58859565 52.24881619 -38.58859565 52.24881619 -42 50 C-42.17473457 42.7523141 -41.50517457 35.8068649 -40.5625 28.625 C-40.42779297 27.54605469 -40.29308594 26.46710938 -40.15429688 25.35546875 C-39.1381079 17.41432371 -39.1381079 17.41432371 -38 14 C-35.8737793 12.98852539 -35.8737793 12.98852539 -33.07421875 12.09765625 C-31.53604492 11.59782227 -31.53604492 11.59782227 -29.96679688 11.08789062 C-28.88462891 10.74951172 -27.80246094 10.41113281 -26.6875 10.0625 C-25.64787109 9.72798828 -24.60824219 9.39347656 -23.53710938 9.04882812 C-19.2285079 7.66248952 -14.91576489 6.28947272 -10.60009766 4.92529297 C-9.52163574 4.57740723 -8.44317383 4.22952148 -7.33203125 3.87109375 C-6.35596924 3.55970459 -5.37990723 3.24831543 -4.37426758 2.92749023 C-1.86131158 2.12887464 -1.86131158 2.12887464 0 0 Z " fill="#DDDEDF" transform="translate(455,351)"/>
<path d="M0 0 C1.32 0.33 2.64 0.66 4 1 C4.59538436 5.85328462 2.63824971 8.62091299 -0.125 12.375 C-0.53226318 12.95080811 -0.93952637 13.52661621 -1.35913086 14.11987305 C-3.96782985 17.75909299 -6.71503632 21.10522327 -10.00390625 24.14453125 C-11.70581243 27.31474864 -11.49528412 30.54004756 -11 34 C-10.05820936 36.79553989 -8.75075075 39.33290228 -7.375 41.9375 C-4.38827315 47.93638404 -1.70869371 53.94258243 0.5625 60.25 C0.82562988 60.9524585 1.08875977 61.65491699 1.35986328 62.37866211 C2.71923115 66.24961947 3.6433449 69.14113343 2 73 C-0.0546875 74.94921875 -0.0546875 74.94921875 -3 77 C-4.27357655 77.92298525 -5.5470022 78.84617873 -6.8203125 79.76953125 C-8.25344632 80.78634219 -9.68841497 81.80057091 -11.125 82.8125 C-11.87475098 83.34077393 -12.62450195 83.86904785 -13.39697266 84.41333008 C-28.95597628 95.31865876 -28.95597628 95.31865876 -34 97 C-34 104.26 -34 111.52 -34 119 C-34.99 119.33 -35.98 119.66 -37 120 C-37.73323796 122.01508358 -37.73323796 122.01508358 -38 124 C-38.86111516 120.97230685 -39.18230893 118.15733363 -39.31640625 115.015625 C-39.37356812 113.75153809 -39.37356812 113.75153809 -39.43188477 112.46191406 C-39.47498779 111.40198242 -39.51809082 110.34205078 -39.5625 109.25 C-39.706875 105.8675 -39.85125 102.485 -40 99 C-40.33 108.57 -40.66 118.14 -41 128 C-41.33 128 -41.66 128 -42 128 C-42 117.44 -42 106.88 -42 96 C-43.65 95.34 -45.3 94.68 -47 94 C-48.18609833 93.31494657 -49.35122118 92.59181462 -50.48828125 91.828125 C-51.10864258 91.41369141 -51.72900391 90.99925781 -52.36816406 90.57226562 C-53.00979492 90.13591797 -53.65142578 89.69957031 -54.3125 89.25 C-54.97604492 88.80333984 -55.63958984 88.35667969 -56.32324219 87.89648438 C-60.46283681 85.09348596 -64.53137202 82.218937 -68.484375 79.15625 C-71.68541268 76.71422125 -74.06240758 75.6385285 -78 75 C-78.33 74.01 -78.66 73.02 -79 72 C-78.505 71.01 -78.505 71.01 -78 70 C-78.66 69.67 -79.32 69.34 -80 69 C-78.515 68.505 -78.515 68.505 -77 68 C-76.19494347 65.9912972 -76.19494347 65.9912972 -75.7890625 63.51171875 C-75.59868408 62.58262695 -75.40830566 61.65353516 -75.2121582 60.69628906 C-75.018396 59.70338867 -74.82463379 58.71048828 -74.625 57.6875 C-70.35488953 37.35488953 -70.35488953 37.35488953 -65 32 C-64.505 30.9790625 -64.505 30.9790625 -64 29.9375 C-63 28 -63 28 -61 27 C-60.34 26.01 -59.68 25.02 -59 24 C-56.13169529 23.93186241 -53.47238919 24.03905205 -50.625 24.26953125 C-48.89993881 24.35627085 -47.17466254 24.43881526 -45.44921875 24.51757812 C-42.72930229 24.65291318 -40.02066351 24.81073714 -37.30712891 25.04223633 C-28.51185622 25.84376309 -28.51185622 25.84376309 -20 24 C-15.61378223 20.14762715 -13.34308792 14.94320652 -10.9375 9.73446655 C-9.69750389 7.44035266 -8.29480448 6.21343763 -6 5 C-5.34 5 -4.68 5 -4 5 C-3.01 4.67 -2.02 4.34 -1 4 C-0.26676204 1.98491642 -0.26676204 1.98491642 0 0 Z " fill="#3E3F3F" transform="translate(531,276)"/>
<path d="M0 0 C3.24726583 1.12837382 6.4746894 2.30140819 9.69921875 3.49316406 C11.35244141 4.09257812 11.35244141 4.09257812 13.0390625 4.70410156 C15.16655278 5.48052058 17.28731012 6.27571143 19.39990234 7.09179688 C22.0771981 8.13969133 22.0771981 8.13969133 24.45556641 8.63671875 C26.33203125 9.12597656 26.33203125 9.12597656 29.19921875 11.11816406 C30.63657483 15.20648546 31.0993745 19.32538015 31.57421875 23.61816406 C31.87245924 25.89957633 32.17188376 28.18083422 32.47265625 30.46191406 C32.59044434 31.47447266 32.70823242 32.48703125 32.82958984 33.53027344 C33.13596253 36.22658112 33.13596253 36.22658112 34.19921875 39.11816406 C34.63671875 42.55566406 34.63671875 42.55566406 34.19921875 46.11816406 C31.51171875 48.11816406 31.51171875 48.11816406 28.19921875 50.11816406 C26.97693007 51.65171575 26.97693007 51.65171575 25.90625 53.39941406 C23.27624662 57.21912204 20.26027269 59.84572565 16.57421875 62.61816406 C15.96175293 63.08810791 15.34928711 63.55805176 14.71826172 64.04223633 C9.41321475 68.06273657 3.94975302 71.76065275 -1.80078125 75.11816406 C-2.55359375 75.56289063 -3.30640625 76.00761719 -4.08203125 76.46582031 C-8.19179166 78.72772203 -10.32946791 79.39878699 -14.80078125 78.11816406 C-16.62893009 77.34877428 -18.43316476 76.52102681 -20.21484375 75.64941406 C-21.22289062 75.16085937 -22.2309375 74.67230469 -23.26953125 74.16894531 C-24.31109375 73.6571875 -25.35265625 73.14542969 -26.42578125 72.61816406 C-28.50057532 71.6062559 -30.57606508 70.59577255 -32.65234375 69.58691406 C-33.56838379 69.13767578 -34.48442383 68.6884375 -35.42822266 68.22558594 C-37.86437688 67.03324194 -37.86437688 67.03324194 -40.80078125 66.11816406 C-41.13370451 58.61322373 -41.42749215 51.10767547 -41.68066406 43.59960938 C-41.75670722 41.39559426 -41.83864643 39.19176794 -41.92871094 36.98828125 C-42.03665216 34.23993166 -42.11147368 31.49283125 -42.17578125 28.74316406 C-42.21380859 27.92493164 -42.25183594 27.10669922 -42.29101562 26.26367188 C-42.34487041 22.54293998 -42.27097363 20.62492696 -39.69140625 17.84472656 C-38.7375 17.27496094 -37.78359375 16.70519531 -36.80078125 16.11816406 C-35.75664062 15.43238281 -34.7125 14.74660156 -33.63671875 14.04003906 C-32.48425855 13.31419482 -31.33056617 12.59030405 -30.17578125 11.86816406 C-24.58559109 8.33096902 -19.21531078 4.60473637 -13.91015625 0.64941406 C-9.13303034 -2.81842548 -5.36608862 -1.68953209 0 0 Z " fill="#DBDDDD" transform="translate(539.80078125,352.8818359375)"/>
<path d="M0 0 C4.522475 3.9069159 7.61090121 9.34573475 10.91796875 14.2578125 C12.94200519 16.92361659 15.10007839 19.17275878 17.46801758 21.52270508 C23.64380162 27.72998316 23.64380162 27.72998316 24.65625 31.33984375 C24.26974307 36.68330207 21.50367093 41.58267009 19.3125 46.39453125 C18.24236794 49.33420951 17.59245903 51.83535068 17.0625 54.88671875 C16.91337158 55.74023926 16.76424316 56.59375977 16.6105957 57.47314453 C16.3327308 59.17368414 16.08542736 60.87955478 15.87182617 62.58935547 C15.48272783 64.95889882 15.08557736 66.85579121 14 69 C11.50421598 70.72321786 8.9302666 71.32701227 6 72 C4.72261052 72.39517982 3.44773956 72.79861115 2.17578125 73.2109375 C0.8884043 73.6002287 -0.39936583 73.98822174 -1.6875 74.375 C-8.071261 76.31997582 -14.24348458 78.56101943 -20.42578125 81.08203125 C-23 82 -23 82 -26 82 C-27.578125 80.49609375 -27.578125 80.49609375 -29.25 78.4375 C-29.86875 77.7053125 -30.4875 76.973125 -31.125 76.21875 C-31.74375 75.4865625 -32.3625 74.754375 -33 74 C-37.6583515 68.71456272 -42.72132569 65.04126532 -48.7421875 61.3828125 C-51 60 -51 60 -52 59 C-53.47028362 40.70627877 -49.39196158 23.74219538 -40 8 C-38 6 -38 6 -34.546875 5.9921875 C-33.83337891 6.00991211 -33.11988281 6.02763672 -32.38476562 6.04589844 C-27.92822074 5.96012546 -23.61045193 4.98973097 -19.25 4.125 C-17.85201172 3.86396484 -17.85201172 3.86396484 -16.42578125 3.59765625 C-11.15615611 2.57699715 -5.15441194 -1.10451684 0 0 Z " fill="#F9FAFA" transform="translate(441,275)"/>
<path d="M0 0 C0.60996826 0.14622803 1.21993652 0.29245605 1.84838867 0.44311523 C4.62786382 1.10886885 7.40767769 1.7731975 10.1875 2.4375 C11.14720703 2.66759766 12.10691406 2.89769531 13.09570312 3.13476562 C14.02705078 3.35712891 14.95839844 3.57949219 15.91796875 3.80859375 C16.77156982 4.01282959 17.6251709 4.21706543 18.50463867 4.42749023 C24.85236707 5.88384706 30.60154924 6.76412428 37 5 C38.58475045 7.99925342 40.16753521 10.99954008 41.75 14 C42.1934375 14.83917969 42.636875 15.67835938 43.09375 16.54296875 C44.4022776 19.02532259 45.70156107 21.51235789 47 24 C47.36150146 24.67788574 47.72300293 25.35577148 48.09545898 26.05419922 C50.79899354 31.24169192 52.71364169 36.58257982 54.5625 42.125 C56.83867387 48.94304391 56.83867387 48.94304391 59.77734375 55.4921875 C60.38255859 56.73355469 60.38255859 56.73355469 61 58 C60.505 58.99 60.505 58.99 60 60 C59.34 59.34 58.68 58.68 58 58 C51.31485458 58.7350886 45.92368487 64.89605848 41.6875 69.6484375 C41.09952637 70.29079346 40.51155273 70.93314941 39.90576172 71.5949707 C38.73640195 72.88697377 37.59583842 74.20575267 36.48876953 75.55151367 C34.73316238 77.4743582 33.31532222 78.79972131 31 80 C27.11688565 80.1248074 23.70481167 79.08498056 20 78 C18.9265332 77.73759521 17.85306641 77.47519043 16.74707031 77.20483398 C13.32695487 76.35823394 9.94900908 75.40921367 6.5625 74.4375 C5.40556641 74.14037109 4.24863281 73.84324219 3.05664062 73.53710938 C-5.07810695 71.17175329 -5.07810695 71.17175329 -7.52954102 68.0559082 C-8.57390666 65.73325733 -9.2989197 63.44684568 -10 61 C-10.65898867 59.38388144 -11.33770024 57.77567512 -12.03515625 56.17578125 C-13.05543216 53.73223028 -14.07286212 51.28753222 -15.08789062 48.84179688 C-16.53454615 45.38045666 -17.99757342 42.00473128 -19.7109375 38.6640625 C-21.45481435 35.06005034 -21.92413487 31.87076163 -21 28 C-19.7637496 26.07548253 -18.36792105 24.55312903 -16.77734375 22.91015625 C-14.7744042 20.7575465 -13.16203645 18.48707433 -11.5 16.0625 C-8.84318508 12.19804193 -6.10389911 8.4212813 -3.26171875 4.69140625 C-2.12290108 3.16475594 -1.05649156 1.58473734 0 0 Z " fill="#F7F8F8" transform="translate(540,274)"/>
<path d="M0 0 C1.12019531 -0.00773438 2.24039063 -0.01546875 3.39453125 -0.0234375 C24.0190241 0.02413918 24.0190241 0.02413918 28.15722656 3.73681641 C29.34906053 5.68201875 30.12460363 7.53452128 30.875 9.6875 C31.48287173 11.1428962 32.09620118 12.59602438 32.71484375 14.046875 C33.15159424 15.11905273 33.15159424 15.11905273 33.59716797 16.21289062 C35.30873623 20.07479587 37.75899791 23.45606759 40.15234375 26.91796875 C41.64179353 29.49536445 42.35366381 31.27135039 42.5 34.25 C41.3125 36.390625 41.3125 36.390625 39.5 38.5 C38.8503125 39.28117187 38.200625 40.06234375 37.53125 40.8671875 C36.8609375 41.65351563 36.190625 42.43984375 35.5 43.25 C34.3232909 44.70024236 33.15638166 46.15849781 32 47.625 C31.15828247 48.66116455 31.15828247 48.66116455 30.29956055 49.71826172 C28.40903655 52.18739454 28.40903655 52.18739454 27.3059082 55.05078125 C25.72779471 58.50818609 24.32625986 60.68081536 21.5 63.25 C16.18323656 65.17631391 10.44256884 64.99945371 4.85864258 64.90380859 C2.19491847 64.87508001 -0.43898361 64.98454243 -3.09960938 65.10546875 C-15.04182155 65.29543932 -15.04182155 65.29543932 -19.25048828 61.79342651 C-22.31103567 58.24813442 -24.42948474 54.31481273 -26.48571777 50.13072205 C-28.10431616 47.12945317 -30.1886222 44.6747177 -32.375 42.0625 C-33.07367188 41.22332031 -33.77234375 40.38414062 -34.4921875 39.51953125 C-36.45395371 37.1971826 -36.45395371 37.1971826 -38.8203125 35.26171875 C-40.5 33.25 -40.5 33.25 -40.421875 30.80078125 C-39.44568309 28.09970788 -38.27511492 25.8706086 -36.75 23.4375 C-36.21375 22.56738281 -35.6775 21.69726562 -35.125 20.80078125 C-34.12101581 19.22481568 -33.10292202 17.65762008 -32.0625 16.10546875 C-29.03468553 11.53671298 -27.55925189 7.64255507 -26.5 2.25 C-17.60331662 0.64008903 -9.03493481 -0.0623816 0 0 Z " fill="#FCFDFD" transform="translate(489.5,237.75)"/>
<path d="M0 0 C0.70511719 0.52335937 1.41023437 1.04671875 2.13671875 1.5859375 C3.20986328 2.37097656 3.20986328 2.37097656 4.3046875 3.171875 C12.08729327 9.85936739 16.59439402 21.70258513 17.390625 31.80859375 C17.0844044 36.36421399 15.85108268 39.85519728 14.07421875 44.0234375 C13.59722534 45.14830566 13.59722534 45.14830566 13.1105957 46.29589844 C8.67329426 56.33757839 3.29047857 61.37424934 -6.86328125 65.5859375 C-7.69472656 65.95203125 -8.52617188 66.318125 -9.3828125 66.6953125 C-17.61557412 69.6513277 -26.17597287 66.99426069 -33.86328125 63.5859375 C-41.77773473 59.21705295 -46.75244609 52.35598919 -49.73828125 43.8984375 C-52.14034742 34.7191132 -52.27169414 24.154402 -47.86328125 15.5859375 C-42.80684428 7.10746742 -37.41319064 0.80661131 -27.96875 -2.6796875 C-18.77503138 -4.85379958 -8.2340265 -5.06064108 0 0 Z " fill="#FBFDFD" transform="translate(749.86328125,509.4140625)"/>
<path d="M0 0 C3.01740493 1.98092876 5.69309406 3.98215656 8.24609375 6.53515625 C7.95815701 10.57966308 6.5934787 12.80061725 3.93359375 15.78515625 C3.33933594 16.4709375 2.74507812 17.15671875 2.1328125 17.86328125 C0.05126729 19.7077975 -0.98228792 20.38205733 -3.75390625 20.53515625 C-5.91015625 19.5390625 -5.91015625 19.5390625 -8.25390625 18.09765625 C-13.97813708 15.05321348 -19.36407745 14.45060256 -25.75390625 15.53515625 C-29.27857332 17.36536854 -31.94783113 18.92300602 -33.75390625 22.53515625 C-34.32257114 26.06301259 -34.32257114 26.06301259 -32.75390625 29.53515625 C-25.66597774 34.40760134 -16.98534686 36.46605397 -8.7890625 38.67578125 C-1.00860988 40.96094915 4.22148247 44.5275463 9.12109375 51.01953125 C12.50983299 57.84407555 13.83964865 64.27642507 11.58203125 71.7265625 C8.16036327 79.32861614 2.08735267 86.44345988 -5.75390625 89.53515625 C-16.52033249 93.2977046 -28.52997099 94.98402297 -39.12890625 90.03515625 C-44.64495951 86.9108876 -49.27176021 82.99466519 -53.75390625 78.53515625 C-53.17356402 74.70138029 -51.42754755 72.64187507 -48.87890625 69.78515625 C-48.18023438 68.9859375 -47.4815625 68.18671875 -46.76171875 67.36328125 C-44.75390625 65.53515625 -44.75390625 65.53515625 -41.75390625 65.53515625 C-40.0450662 67.1585543 -38.37943908 68.82834678 -36.75390625 70.53515625 C-31.20856394 74.23205112 -24.25962117 74.13031629 -17.75390625 73.53515625 C-15.10845014 72.79977675 -13.18581452 71.88046721 -10.75390625 70.53515625 C-9.22898627 67.48531629 -9.51828077 64.89281935 -9.75390625 61.53515625 C-13.70866713 56.48730929 -20.91932901 54.97589521 -26.875 53.44921875 C-36.34214034 50.99741833 -44.54668633 48.59571563 -49.8828125 39.640625 C-50.69140625 37.84765625 -50.69140625 37.84765625 -51.75390625 34.53515625 C-52.14578125 33.77203125 -52.53765625 33.00890625 -52.94140625 32.22265625 C-55.01313196 25.37002504 -54.21711217 19.03545815 -51.01171875 12.703125 C-46.95398126 5.70919858 -43.40955294 1.4482424 -35.75390625 -1.46484375 C-35.05265625 -1.76261719 -34.35140625 -2.06039063 -33.62890625 -2.3671875 C-23.02251778 -6.47716303 -10.02017868 -5.32988228 0 0 Z " fill="#FCFDFD" transform="translate(617.75390625,494.46484375)"/>
<path d="M0 0 C0.84433594 0.08507812 1.68867188 0.17015625 2.55859375 0.2578125 C9.17087182 1.33502938 14.96267128 4.43075761 19.31323242 9.54321289 C24.68664862 17.42650918 24.27563642 27.1175376 24.8125 36.3125 C24.93235092 38.04895988 25.05408226 39.78529104 25.17773438 41.52148438 C25.46128376 45.62054059 25.69395347 49.71969251 25.89068604 53.8237915 C25.99077476 55.81634503 26.11780454 57.80749801 26.24755859 59.79833984 C26.29348145 60.86906738 26.3394043 61.93979492 26.38671875 63.04296875 C26.43401123 63.94426514 26.48130371 64.84556152 26.5300293 65.77416992 C26 68 26 68 23.69848633 69.77856445 C20.1630981 71.37881301 17.83827405 71.55829441 14 71 C11.5625 68.6875 11.5625 68.6875 10 66 C10 65.01 10 64.02 10 63 C9.3709375 63.47050781 8.741875 63.94101562 8.09375 64.42578125 C-1.07944278 71.09845009 -8.39112964 74.60597021 -20 73 C-27.23463058 70.51482156 -32.17095008 65.58738304 -36.125 59.17578125 C-38.07631102 54.32363733 -37.76242941 49.09302846 -37 44 C-33.42492676 36.44720023 -25.42809637 32.89876932 -18 30 C-10.75871051 27.71443367 -3.53355993 27.7670033 4 28 C3.76928323 24.0009094 3.56356875 21.66603579 0.9375 18.5625 C-5.43986683 15.1702836 -11.04852567 17.17571449 -17.625 19.0625 C-18.87539063 19.44535156 -20.12578125 19.82820312 -21.4140625 20.22265625 C-25.69216584 21.15004467 -29.10541915 21.19990121 -32.875 18.8125 C-34.61514411 16.00893449 -34.51732864 14.23330397 -34 11 C-25.58271826 1.01525425 -12.36941805 -1.25686776 0 0 Z " fill="#323335" transform="translate(404,522)"/>
<path d="M0 0 C6.69182601 5.1864814 11.32095874 13.32150488 12.87890625 21.6640625 C13.15234375 24.06640625 13.15234375 24.06640625 13.25390625 26.6015625 C13.30289063 27.43558594 13.351875 28.26960937 13.40234375 29.12890625 C12.61270155 32.95336737 10.9565223 34.32555897 7.87890625 36.6640625 C5.05764722 37.34546828 2.73124189 37.72181946 -0.12109375 37.9140625 C-0.8898584 37.98286621 -1.65862305 38.05166992 -2.45068359 38.12255859 C-11.98647639 38.92467024 -21.56007697 39.3057601 -31.12109375 39.6640625 C-28.40511428 45.30963781 -26.80863621 47.61012428 -20.93359375 49.9140625 C-14.10157962 51.25806528 -8.06093686 50.48253307 -2.12109375 46.6640625 C-1.07993534 45.36261448 -0.06731534 44.03608381 0.87890625 42.6640625 C1.53890625 42.6640625 2.19890625 42.6640625 2.87890625 42.6640625 C4.21223958 44.6640625 5.54557292 46.6640625 6.87890625 48.6640625 C8.98466268 50.49707159 8.98466268 50.49707159 10.87890625 51.6640625 C9.20312711 56.55175166 7.36244526 60.388155 2.60546875 62.83203125 C-7.08996029 66.8645145 -18.07540271 68.75582437 -28.24609375 65.2265625 C-37.29142895 61.05291105 -44.06103939 54.09716684 -48.12109375 45.03125 C-51.62912378 33.21905513 -48.99289593 21.30444457 -44.05859375 10.29296875 C-40.17987619 3.16851879 -32.92999134 -1.32967297 -25.34765625 -3.8671875 C-16.54235141 -5.72093589 -7.6451851 -4.81519945 0 0 Z " fill="#FCFDFD" transform="translate(867.12109375,502.3359375)"/>
<path d="M0 0 C7.40347572 4.87956354 10.01444024 11.70364838 12 20 C13.54398072 27.69085408 13.33689819 35.50901035 13.4050293 43.32275391 C13.42672008 45.19468508 13.460952 47.06651193 13.50756836 48.93798828 C13.57436266 51.64921889 13.60197789 54.358377 13.62109375 57.0703125 C13.64892441 57.9057962 13.67675507 58.74127991 13.70542908 59.6020813 C13.69731141 61.88760906 13.62726974 63.80147482 13 66 C9.3565411 69.20862243 6.66346915 70.54045941 1.8125 70.375 C0.97332031 70.36210938 0.13414062 70.34921875 -0.73046875 70.3359375 C-3 70 -3 70 -6 68 C-7.25910916 64.22267253 -7.1938942 60.64894444 -7.24609375 56.7109375 C-7.27905706 55.0299432 -7.31226825 53.34895374 -7.34570312 51.66796875 C-7.39289727 49.02851989 -7.4372891 46.38908704 -7.47680664 43.74951172 C-7.51691206 41.19477237 -7.5683831 38.64044375 -7.62109375 36.0859375 C-7.6295079 35.31059662 -7.63792206 34.53525574 -7.64659119 33.73641968 C-7.72252407 24.05722005 -7.72252407 24.05722005 -12.0625 15.9375 C-17.080532 14.33600043 -21.75810859 14.5126323 -26.875 15.625 C-29.98435421 17.63693507 -30.64863206 19.54268114 -32 23 C-32.41367868 26.43241123 -32.39370205 29.8351877 -32.37109375 33.2890625 C-32.38846575 35.30208512 -32.40605023 37.31510592 -32.42382812 39.328125 C-32.43392438 42.48603553 -32.43748987 45.64383176 -32.43579102 48.80175781 C-32.43935417 51.86037126 -32.46665919 54.91810522 -32.49609375 57.9765625 C-32.48791122 58.9214151 -32.4797287 59.8662677 -32.47129822 60.8397522 C-32.54575797 67.37838717 -32.54575797 67.37838717 -34.89501953 70.59326172 C-38.48183984 72.99029937 -41.85266216 72.74666867 -46 72 C-49.49890004 69.88608123 -50.70578686 68.88263941 -52 65 C-52.15313365 62.6693095 -52.24947617 60.33475662 -52.31640625 58 C-52.33741394 57.2998024 -52.35842163 56.5996048 -52.38006592 55.87818909 C-52.44669797 53.58557692 -52.50557723 51.29287283 -52.5625 49 C-52.58234955 48.22099335 -52.6021991 47.44198669 -52.62265015 46.63937378 C-52.74279959 41.8555596 -52.84950846 37.0715572 -52.94995117 32.28729248 C-52.99748994 30.11471283 -53.051354 27.94239369 -53.10742188 25.77001953 C-53.19785376 22.03416761 -53.26043066 18.29905784 -53.3125 14.5625 C-53.342229 13.44552734 -53.37195801 12.32855469 -53.40258789 11.17773438 C-53.4102417 10.15099609 -53.41789551 9.12425781 -53.42578125 8.06640625 C-53.44036377 7.17896729 -53.45494629 6.29152832 -53.4699707 5.37719727 C-52.84214684 2.20155 -51.47910826 1.00761965 -49 -1 C-46.74609375 -1.4609375 -46.74609375 -1.4609375 -44.4375 -1.375 C-43.29087891 -1.35566406 -43.29087891 -1.35566406 -42.12109375 -1.3359375 C-40 -1 -40 -1 -37 1 C-37 2.32 -37 3.64 -37 5 C-36.38125 4.4225 -35.7625 3.845 -35.125 3.25 C-24.77239556 -4.2038752 -11.54156793 -5.87570731 0 0 Z " fill="#343435" transform="translate(228,534)"/>
<path d="M0 0 C6.65497729 5.40794073 9.65179483 11.09162711 10.79296875 19.5234375 C10.96569565 22.80677248 11.00417922 26.08756997 11.03125 29.375 C11.03932175 30.31145355 11.04739349 31.2479071 11.05570984 32.21273804 C11.06948948 34.18445006 11.08023876 36.15618532 11.08813477 38.12792969 C11.09971171 40.14525331 11.12025237 42.16254498 11.1496582 44.1796875 C11.19218646 47.09916933 11.20847705 50.01774755 11.21875 52.9375 C11.23625809 53.83860504 11.25376617 54.73971008 11.27180481 55.66812134 C11.25015674 61.8928543 11.25015674 61.8928543 8.95385742 65.06005859 C4.89549576 67.80842825 0.56554008 68.37034473 -4.20703125 67.5234375 C-11.16888098 60.56158777 -8.52637274 43.28650383 -8.68383789 33.85717773 C-8.72353715 31.58290963 -8.77501611 29.30914525 -8.828125 27.03515625 C-8.83653915 26.34032639 -8.84495331 25.64549652 -8.85362244 24.92961121 C-8.94543213 21.33625484 -9.13073581 18.52672451 -11.20703125 15.5234375 C-15.63313812 13.31038407 -21.4019953 13.97565149 -26.20703125 14.5234375 C-29.26676845 16.18002249 -30.65661005 18.42259509 -32.20703125 21.5234375 C-32.29949891 22.92189193 -32.33215927 24.32456634 -32.33300781 25.72607422 C-32.33681458 26.59392548 -32.34062134 27.46177673 -32.34454346 28.35592651 C-32.34557068 29.29550201 -32.3465979 30.23507751 -32.34765625 31.203125 C-32.36598158 33.18360528 -32.38555164 35.16407435 -32.40625 37.14453125 C-32.43525041 40.27411796 -32.45703196 43.4029849 -32.45751953 46.53271484 C-32.46084874 49.54850486 -32.49536571 52.56262435 -32.53515625 55.578125 C-32.52808655 56.51365204 -32.52101685 57.44917908 -32.51373291 58.41305542 C-32.63528492 64.88596077 -32.63528492 64.88596077 -35.53027344 68.11376953 C-39.06919388 69.97748046 -41.25718846 70.08770076 -45.20703125 69.5234375 C-48.59642681 67.38664465 -49.93285682 66.3459608 -51.20703125 62.5234375 C-51.44099495 60.08792887 -51.62344964 57.67568405 -51.7578125 55.234375 C-51.82057121 54.12103287 -51.82057121 54.12103287 -51.88459778 52.98519897 C-52.34457047 44.00561431 -52.39310233 35.02380002 -52.39233398 26.03417969 C-52.39456556 23.1033771 -52.41293482 20.17292612 -52.43164062 17.2421875 C-52.43456758 15.36979294 -52.43655704 13.49739661 -52.4375 11.625 C-52.44468552 10.75324127 -52.45187103 9.88148254 -52.45927429 8.98330688 C-52.45619766 8.1775119 -52.45312103 7.37171692 -52.44995117 6.54150391 C-52.45137619 5.83555084 -52.45280121 5.12959778 -52.45426941 4.4022522 C-52.20703125 2.5234375 -52.20703125 2.5234375 -50.20703125 -0.4765625 C-47.4921875 -0.875 -47.4921875 -0.875 -44.26953125 -0.8515625 C-43.20863281 -0.85929688 -42.14773438 -0.86703125 -41.0546875 -0.875 C-38.20703125 -0.4765625 -38.20703125 -0.4765625 -36.328125 0.921875 C-35.20703125 2.5234375 -35.20703125 2.5234375 -35.20703125 4.5234375 C-34.54703125 4.5234375 -33.88703125 4.5234375 -33.20703125 4.5234375 C-32.95953125 3.9253125 -32.71203125 3.3271875 -32.45703125 2.7109375 C-30.18778785 -1.26023845 -27.79617849 -2.28999921 -23.45703125 -3.6640625 C-15.03284734 -5.50150003 -7.27319509 -4.86596061 0 0 Z " fill="#353637" transform="translate(492.20703125,522.4765625)"/>
<path d="M0 0 C2.29609817 1.57505175 3.34892013 2.66571467 5 5 C5.1875 7.5625 5.1875 7.5625 4 10 C-0.70828025 14.06624204 -0.70828025 14.06624204 -4.4375 13.875 C-5.7059375 13.441875 -5.7059375 13.441875 -7 13 C-13.39049253 11.00699908 -13.39049253 11.00699908 -20 11 C-23.32808239 12.88413915 -23.32808239 12.88413915 -26 15 C-25.96906827 17.41585574 -25.96906827 17.41585574 -25 20 C-20.29607263 22.86645574 -15.40572976 24.01821961 -10.125 25.3125 C-1.94878105 27.46092937 4.02968839 29.73017705 9 36.875 C11.53516346 44.7973858 9.59609548 50.78283616 6 58 C1.96528398 64.48436503 -4.77423634 68.03410299 -12 70 C-14.65692576 70.23678302 -17.15950909 70.38131214 -19.8125 70.375 C-20.51810059 70.37338867 -21.22370117 70.37177734 -21.95068359 70.37011719 C-27.79851622 70.23296407 -32.07698564 69.07162434 -37 66 C-38.11375 65.34 -39.2275 64.68 -40.375 64 C-42.8641118 62.10353386 -44.56858687 60.77862548 -46 58 C-46.125 55.5 -46.125 55.5 -45 53 C-40.82853274 50.0318406 -38.19891044 48.46108855 -33 49 C-30.640625 50.12890625 -30.640625 50.12890625 -28.25 51.5625 C-23.17224118 54.23779681 -19.49523977 54.65640629 -14 53 C-11.39987862 51.95170604 -11.39987862 51.95170604 -10 50 C-9.25 47.5 -9.25 47.5 -10 45 C-13.43338421 42.52476952 -16.5076984 41.50319183 -20.625 40.6875 C-30.20107998 38.41421164 -38.89968974 33.92272999 -45 26 C-46.90747616 20.27757153 -47.02012563 14.16266634 -44.4375 8.6875 C-32.89845327 -4.0350387 -15.80645031 -9.34431228 0 0 Z " fill="#2C2E30" transform="translate(296,532)"/>
<path d="M0 0 C2.30144422 1.95928897 4.47170156 3.82453067 6.43359375 6.125 C6.43359375 7.115 6.43359375 8.105 6.43359375 9.125 C4.45412783 10.48863208 2.45166925 11.81918644 0.43359375 13.125 C-1.39941534 15.23075643 -1.39941534 15.23075643 -2.56640625 17.125 C-7.24077743 15.30718899 -7.24077743 15.30718899 -9.4375 14.078125 C-13.34062132 12.33067252 -17.38497344 12.58546028 -21.56640625 13.125 C-25.10739785 14.497377 -27.87149084 16.43008459 -30.56640625 19.125 C-33.32183281 27.6974382 -33.75901754 36.61136989 -30.56640625 45.125 C-28.29537792 46.63345917 -28.29537792 46.63345917 -25.56640625 47.125 C-24.82390625 47.49625 -24.08140625 47.8675 -23.31640625 48.25 C-18.55539248 49.76486802 -13.89373712 50.28261518 -9.3125 48.00390625 C-7.94584792 47.11545656 -6.60281153 46.18900391 -5.29296875 45.21875 C-3.56640625 44.125 -3.56640625 44.125 -0.56640625 44.125 C1.37109375 45.33203125 1.37109375 45.33203125 3.43359375 46.9375 C4.11421875 47.45957031 4.79484375 47.98164062 5.49609375 48.51953125 C7.25130693 49.97395185 8.85531651 51.48260525 10.43359375 53.125 C5.50446656 60.51869079 -2.46198575 65.54020078 -11 67.69140625 C-20.58342983 69.31052453 -29.16951957 67.9821753 -37.75390625 63.4375 C-46.07478244 56.59589068 -50.8291859 48.8243291 -52.56640625 38.125 C-53.43326447 27.66585823 -52.12517538 17.84059891 -46.50390625 8.8125 C-33.98936782 -2.63697133 -15.58323079 -11.3850088 0 0 Z " fill="#FCFDFD" transform="translate(688.56640625,512.875)"/>
<path d="M0 0 C2.9375 1.6875 2.9375 1.6875 5 5 C5.41221923 9.36529599 5.28795913 13.62942031 5 18 C5.64066406 17.97679687 6.28132813 17.95359375 6.94140625 17.9296875 C12.40987096 17.81559137 16.83098277 18.20208096 22 20 C22 23.63 22 27.26 22 31 C16.17251381 33.42811925 10.2242509 33.61727907 4 34 C4.33 34.66 4.66 35.32 5 36 C5.12951863 37.70669485 5.20243188 39.41786095 5.24609375 41.12890625 C5.27896484 42.16466797 5.31183594 43.20042969 5.34570312 44.26757812 C5.40613687 46.4367637 5.46350913 48.60603707 5.51757812 50.77539062 C5.34720357 61.02272931 5.34720357 61.02272931 9 70 C12.33640206 69.99092135 15.66211279 69.86661709 18.99609375 69.7421875 C19.98738281 69.82726562 20.97867188 69.91234375 22 70 C24.36415483 73.54623224 24.60271315 75.54599366 24.5078125 79.71484375 C23.72386007 83.24262968 21.85181482 84.71271964 18.99609375 86.78125 C13.6657196 90.03580329 9.28738402 91.785923 3 91 C-2.96313931 88.44436887 -7.4661793 84.47322625 -11 79 C-12.91377473 73.54195771 -13.27001031 68.75735 -13.1953125 63.00390625 C-13.1924826 62.17036118 -13.18965271 61.3368161 -13.18673706 60.47801208 C-13.17562289 57.8393564 -13.15053515 55.20105152 -13.125 52.5625 C-13.11495885 50.76367681 -13.10583499 48.96484825 -13.09765625 47.16601562 C-13.07571235 42.77721045 -13.04124387 38.38866452 -13 34 C-13.67546875 34.02320313 -14.3509375 34.04640625 -15.046875 34.0703125 C-15.93890625 34.08835937 -16.8309375 34.10640625 -17.75 34.125 C-19.07257813 34.15980469 -19.07257813 34.15980469 -20.421875 34.1953125 C-23.14769441 33.98881103 -24.7273133 33.49846761 -27 32 C-27.609375 29.8359375 -27.609375 29.8359375 -27.75 27.375 C-27.80671875 26.55773437 -27.8634375 25.74046875 -27.921875 24.8984375 C-27.94765625 24.27195312 -27.9734375 23.64546875 -28 23 C-23.51925805 19.63944354 -20.39449293 19.72570375 -15 20 C-15.05800781 19.04738281 -15.11601562 18.09476563 -15.17578125 17.11328125 C-15.53705246 7.06994172 -15.53705246 7.06994172 -13.9921875 3.9921875 C-9.96510627 -0.03489373 -5.45201817 -0.56400188 0 0 Z " fill="#303235" transform="translate(336,508)"/>
<path d="M0 0 C3.72782941 2.85535869 4.73631236 4.45329486 5.5234375 9.0703125 C5.78434994 12.05317632 5.9467226 15.00677863 6 18 C6.67546875 17.97679687 7.3509375 17.95359375 8.046875 17.9296875 C9.38492188 17.90261719 9.38492188 17.90261719 10.75 17.875 C12.07257812 17.84019531 12.07257812 17.84019531 13.421875 17.8046875 C16.17464155 18.01323042 17.73711001 18.42826419 20 20 C21.21652893 24.60543095 21.34729568 27.79957615 19 32 C16.23547967 33.38226016 13.9538637 33.09525387 10.875 33.0625 C9.77929688 33.05347656 8.68359375 33.04445313 7.5546875 33.03515625 C6.71164062 33.02355469 5.86859375 33.01195312 5 33 C5.11829766 37.50253816 5.24254934 42.00485779 5.37231445 46.50708008 C5.41561833 48.03861018 5.45729667 49.57018715 5.49731445 51.10180664 C5.55512732 53.30369182 5.61878969 55.50534211 5.68359375 57.70703125 C5.70030624 58.39150833 5.71701874 59.07598541 5.73423767 59.78120422 C5.8273555 62.77120104 6.04687437 65.14062311 7 68 C7.97582031 68.02578125 8.95164062 68.0515625 9.95703125 68.078125 C11.86548828 68.16320312 11.86548828 68.16320312 13.8125 68.25 C15.07707031 68.29640625 16.34164062 68.3428125 17.64453125 68.390625 C21 69 21 69 22.91796875 70.80078125 C24.58124843 74.18138218 24.75192508 77.37051547 24 81 C20.67063242 85.68192315 16.47443599 87.74842737 11 89 C4.84135787 89.89099592 -0.03485977 89.4140755 -5.17578125 85.75390625 C-10.91895637 80.23209548 -13.76659461 73.72325444 -14.08862305 65.8269043 C-14.13474063 63.32101235 -14.13838744 60.81876983 -14.125 58.3125 C-14.12234131 57.4263501 -14.11968262 56.5402002 -14.11694336 55.62719727 C-14.00398632 40.01195896 -14.00398632 40.01195896 -12 34 C-15.96 34 -19.92 34 -24 34 C-26.37247875 29.25504251 -26.25100218 27.18737832 -26 22 C-25.67 21.34 -25.34 20.68 -25 20 C-21.37 20 -17.74 20 -14 20 C-14.06960938 18.89140625 -14.13921875 17.7828125 -14.2109375 16.640625 C-14.26722523 15.177144 -14.32182432 13.71359738 -14.375 12.25 C-14.42527344 11.52039063 -14.47554687 10.79078125 -14.52734375 10.0390625 C-14.5859375 7.890625 -14.5859375 7.890625 -14 4 C-9.27659461 -0.22375038 -6.06218408 -0.96225144 0 0 Z " fill="#2D3234" transform="translate(534,498)"/>
<path d="M0 0 C3.77113919 2.43199997 6.56545408 4.69636225 8 9 C8.14587687 11.12278808 8.23615749 13.24954384 8.29711914 15.37646484 C8.3570681 17.35530167 8.3570681 17.35530167 8.41822815 19.37411499 C8.45735366 20.81971846 8.4963257 22.26532608 8.53515625 23.7109375 C8.57822402 25.20009339 8.62164072 26.68923922 8.66539001 28.17837524 C8.75636712 31.30715844 8.84432033 34.43600686 8.92993164 37.56494141 C9.038756 41.53990492 9.15308628 45.51468391 9.26950932 49.48943138 C9.3594688 52.57125423 9.44736084 55.65313327 9.53457451 58.73503494 C9.57603459 60.19799563 9.61788908 61.6609452 9.66017342 63.12388229 C9.75679853 66.49532961 9.84398079 69.86639532 9.91751099 73.23846436 C9.97214499 75.72979922 10.04279611 78.22083851 10.13009644 80.71124268 C10.15733795 81.85921326 10.18457947 83.00718384 10.21264648 84.18994141 C10.25940773 85.69568222 10.25940773 85.69568222 10.30711365 87.23184204 C9.94304596 90.51335321 8.91802748 92.34003719 7 95 C3.77432495 97.33583366 0.89785581 97.61142836 -3 97 C-6.21899883 94.84960324 -9.25082294 92.49835412 -11 89 C-12.20926123 77.17810296 -12.26541023 65.21972212 -12.50268555 53.34814453 C-12.56199789 50.39995776 -12.62728511 47.45194837 -12.69335938 44.50390625 C-12.79969737 39.65414651 -12.87505369 34.80439199 -12.94415283 29.95397949 C-13.00200283 26.89406215 -13.10083017 23.83706541 -13.20263672 20.77832031 C-13.24919838 18.78192014 -13.29496263 16.78550116 -13.33984375 14.7890625 C-13.40021568 13.40090836 -13.40021568 13.40090836 -13.46180725 11.98471069 C-13.56444757 5.6005055 -13.56444757 5.6005055 -10.60375977 2.45068359 C-6.66779647 0.25776339 -4.58415907 -0.60545497 0 0 Z " fill="#333437" transform="translate(153,511)"/>
<path d="M0 0 C2.625 1.5 2.625 1.5 4 4 C4.47090568 8.94450965 4.31063683 12.51464616 2 17 C1 18 1 18 -1.94140625 18.09765625 C-3.13636719 18.08605469 -4.33132813 18.07445312 -5.5625 18.0625 C-7.35880859 18.04896484 -7.35880859 18.04896484 -9.19140625 18.03515625 C-10.11824219 18.02355469 -11.04507813 18.01195312 -12 18 C-12.43001312 18.87694519 -12.43001312 18.87694519 -12.86871338 19.77160645 C-13.56116444 21.13558748 -14.28399105 22.48529971 -15.05657959 23.80554199 C-18.07148847 29.14442477 -18.54070895 33.47078702 -18.390625 39.53125 C-18.38496521 40.40777222 -18.37930542 41.28429443 -18.37347412 42.18737793 C-18.35126636 44.95883188 -18.3011016 47.72894365 -18.25 50.5 C-18.22991474 52.39060619 -18.21166754 54.28123286 -18.1953125 56.171875 C-18.15145307 60.78175906 -18.08253652 65.3906528 -18 70 C-23.32058619 72.73334566 -26.07237794 73.76485446 -32 73 C-36.06060861 69.35586406 -36.84662649 65.76108974 -37.14044189 60.47171021 C-37.1472699 59.58015228 -37.1540979 58.68859436 -37.16113281 57.77001953 C-37.17074036 56.75191193 -37.1803479 55.73380432 -37.19024658 54.68484497 C-37.19449646 53.59517426 -37.19874634 52.50550354 -37.203125 51.3828125 C-37.20882507 50.25229462 -37.21452515 49.12177673 -37.22039795 47.95700073 C-37.22983233 45.56818575 -37.23637572 43.17935784 -37.24023438 40.79052734 C-37.24994598 37.14527627 -37.28098742 33.50058775 -37.3125 29.85546875 C-37.31902999 27.53125334 -37.32428048 25.20703391 -37.328125 22.8828125 C-37.3404718 21.79719025 -37.3528186 20.71156799 -37.36553955 19.5930481 C-37.34807752 13.63245953 -36.97366779 9.22608992 -34 4 C-30.98675805 2.49337903 -28.31713623 2.82229627 -25 3 C-23 5 -23 5 -23 9 C-22.56429687 8.60167969 -22.12859375 8.20335937 -21.6796875 7.79296875 C-14.91014682 1.77071503 -9.27580282 -1.38184049 0 0 Z " fill="#FAFCFC" transform="translate(812,501)"/>
<path d="M0 0 C1.9375 1.625 1.9375 1.625 2.9375 4.625 C3.5975 4.625 4.2575 4.625 4.9375 4.625 C10.38497482 12.18117475 10.68247525 20.93934679 9.4375 30 C8.19008006 35.24599892 5.20144633 38.45852509 0.9375 41.625 C-3.76656067 44.52130182 -8.7081242 44.23203679 -14.0625 43.625 C-19.54557628 41.18807721 -22.56847024 36.9608326 -25.0625 31.625 C-26.23456081 27.36430096 -26.27987531 23.07959832 -26.3125 18.6875 C-26.333125 17.99720703 -26.35375 17.30691406 -26.375 16.59570312 C-26.42223132 10.36707331 -24.70941291 6.53195179 -20.6875 1.875 C-14.42819896 -3.49011518 -7.40089362 -3.3228502 0 0 Z " fill="#F9FAFB" transform="translate(654.0625,323.375)"/>
<path d="M0 0 C5.29112204 2.74731337 9.09375244 6.28125733 11 12 C11.67564251 19.476372 11.54004644 25.80223923 7 32 C3.56439218 35.82824871 0.33063886 36.77010121 -4.65625 37.0859375 C-8.56729276 36.9425326 -11.76920488 36.28056126 -15 34 C-19.18956596 28.28475394 -21.04101596 21.01190058 -20 14 C-18.32004563 8.98273717 -16.24556649 4.32310722 -11.6875 1.375 C-7.16395447 -0.31174579 -4.7936262 -0.60871444 0 0 Z " fill="#AFB3B3" transform="translate(737,523)"/>
<path d="M0 0 C4.96479861 -0.8710173 4.96479861 -0.8710173 8 0 C10.12284491 2.28025925 11.64894689 4.70062076 13.30078125 7.33984375 C22.4430512 21.65222499 41.3097106 32.05403996 57.5 35.8125 C60 37 60 37 61.875 40.5 C63 44 63 44 63 46 C43.7559144 43.25084491 20.77575439 28.06229295 8.56640625 13.16015625 C5.48817889 8.91511951 2.71250106 4.48510814 0 0 Z " fill="#C6C7C6" transform="translate(400,406)"/>
<path d="M0 0 C2.625 0.375 2.625 0.375 5 1 C3.55101464 5.16392635 1.50522294 8.34665216 -1.125 11.875 C-1.84945312 12.86242187 -2.57390625 13.84984375 -3.3203125 14.8671875 C-8.62080203 21.41773347 -15.52317757 26.32281156 -22.5 30.9375 C-23.27029541 31.44893555 -24.04059082 31.96037109 -24.83422852 32.48730469 C-30.05295671 35.88643952 -35.37111813 38.95716307 -40.9375 41.75 C-41.60523438 42.08507568 -42.27296875 42.42015137 -42.9609375 42.76538086 C-45.83075183 44.14994695 -47.77292875 45 -51 45 C-50.75588334 41.4196223 -50.58794131 39.55793296 -47.93359375 37.0390625 C-44.51297367 34.66148103 -41.00521831 32.90448396 -37.25 31.125 C-23.27736968 24.26880585 -13.43207021 15.42744687 -3.33984375 3.55859375 C-2.27935864 2.32496821 -1.15031749 1.15031749 0 0 Z " fill="#BBBFBF" transform="translate(579,404)"/>
<path d="M0 0 C-0.99 3.96 -1.98 7.92 -3 12 C-2.01 12.33 -1.02 12.66 0 13 C-0.66 13.33 -1.32 13.66 -2 14 C-5.45167403 11.52187506 -7.23163306 10.20393865 -8 6 C-8.76183594 6.72316406 -8.76183594 6.72316406 -9.5390625 7.4609375 C-17.77773193 15.02076525 -17.77773193 15.02076525 -24.3828125 14.98828125 C-30.84811298 14.55404465 -35.71644897 13.40698622 -40.3125 8.5625 C-41.86734747 6.20143532 -42.42166827 4.69697274 -43 2 C-42.14172607 1.970271 -42.14172607 1.970271 -41.26611328 1.93994141 C-30.30364833 1.54381321 -19.42950416 1.025793 -8.54931641 -0.42724609 C-5.27236 -0.84709418 -3.18202504 -1.06067501 0 0 Z " fill="#A9AAA8" transform="translate(878,539)"/>
<path d="M0 0 C0.495 3.465 0.495 3.465 1 7 C-6.25551458 10.51825572 -13.72797992 12.92811442 -21.4375 15.25 C-22.62021484 15.61351562 -23.80292969 15.97703125 -25.02148438 16.3515625 C-33.71851504 19 -33.71851504 19 -36 19 C-36.99 16.03 -37.98 13.06 -39 10 C-37.68443115 9.80857422 -37.68443115 9.80857422 -36.34228516 9.61328125 C-33.23775719 9.04362645 -30.49044825 8.24628045 -27.5234375 7.1875 C-26.02296875 6.65769531 -26.02296875 6.65769531 -24.4921875 6.1171875 C-23.46351563 5.74851562 -22.43484375 5.37984375 -21.375 5 C-19.32085808 4.26929778 -17.26619082 3.5400703 -15.2109375 2.8125 C-14.30649902 2.48894531 -13.40206055 2.16539062 -12.47021484 1.83203125 C-8.12887876 0.36975873 -4.60851857 -0.10473906 0 0 Z " fill="#2A2F31" transform="translate(453,346)"/>
<path d="M0 0 C1.25425781 0.00902344 2.50851562 0.01804687 3.80078125 0.02734375 C4.75339844 0.03894531 5.70601563 0.05054688 6.6875 0.0625 C6.98531991 2.99106248 7.20122883 5.20786247 6.6875 8.0625 C2.13601241 12.93153324 -2.25306871 15.08800266 -8.8125 15.5 C-12.4184295 15.40955026 -13.29422222 15.07492889 -16.4375 12.9375 C-18.3125 10.0625 -18.3125 10.0625 -18.4375 6.9375 C-17.3125 4.0625 -17.3125 4.0625 -15.0625 2.25 C-10.03209128 0.07777805 -5.44821687 -0.05091791 0 0 Z " fill="#D6D7D8" transform="translate(403.3125,563.9375)"/>
<path d="M0 0 C1.88624671 3.21654702 2.29047742 5.71432261 2.4140625 9.421875 C2.45273437 10.44667969 2.49140625 11.47148437 2.53125 12.52734375 C2.57765625 14.12255859 2.57765625 14.12255859 2.625 15.75 C2.66367187 16.82894531 2.70234375 17.90789062 2.7421875 19.01953125 C2.83634631 21.67951775 2.92197387 24.3394994 3 27 C3.33 26.01 3.66 25.02 4 24 C4.66 23.67 5.32 23.34 6 23 C6 15.74 6 8.48 6 1 C6.66 0.67 7.32 0.34 8 0 C8.66 15.84 9.32 31.68 10 48 C7.03 48 4.06 48 1 48 C0.21947623 41.81792768 -0.13749927 35.81666708 -0.09765625 29.58984375 C-0.0962413 28.73693253 -0.09482635 27.8840213 -0.09336853 27.00526428 C-0.08782939 24.31597184 -0.0752888 21.62676672 -0.0625 18.9375 C-0.05747712 17.09961059 -0.0529156 15.26171985 -0.04882812 13.42382812 C-0.03788 8.94918578 -0.02065839 4.47460762 0 0 Z " fill="#2E3134" transform="translate(490,372)"/>
<path d="M0 0 C6.48979592 0.48979592 6.48979592 0.48979592 8.875 2.875 C11.84565817 8.4862432 11.88409949 14.96880175 10.125 21 C9 23 9 23 7 25 C3.85936171 24.79953373 1.72339057 24.54877905 -0.8125 22.625 C-3.43393938 19.03776716 -3.19606084 15.34616818 -3.25 11.0625 C-3.27578125 9.83660156 -3.3015625 8.61070312 -3.328125 7.34765625 C-2.98411309 3.83791565 -2.39191544 2.51151121 0 0 Z " fill="#5F6565" transform="translate(642,332)"/>
<path d="M0 0 C1.625 1.1875 1.625 1.1875 3.75 4.125 C3.8828125 7.80859375 3.8828125 7.80859375 3.75 11.125 C-0.37463416 11.32122046 -4.49971573 11.50550216 -8.625 11.6875 C-9.800625 11.74357422 -10.97625 11.79964844 -12.1875 11.85742188 C-13.30898438 11.90576172 -14.43046875 11.95410156 -15.5859375 12.00390625 C-16.62282715 12.0510376 -17.6597168 12.09816895 -18.72802734 12.14672852 C-21.25 12.125 -21.25 12.125 -23.25 11.125 C-22.85304363 9.49507308 -22.43167507 7.87107765 -22 6.25 C-21.76796875 5.34507812 -21.5359375 4.44015625 -21.296875 3.5078125 C-20.25 1.125 -20.25 1.125 -18.5703125 -0.16796875 C-12.88643273 -1.89992538 -5.57570855 -2.1683311 0 0 Z " fill="#B1B3B2" transform="translate(858.25,515.875)"/>
<path d="M0 0 C0.495 0.99 0.495 0.99 1 2 C0.50628906 2.61488281 0.01257813 3.22976563 -0.49609375 3.86328125 C-1.13675781 4.67152344 -1.77742187 5.47976563 -2.4375 6.3125 C-3.07558594 7.11300781 -3.71367188 7.91351563 -4.37109375 8.73828125 C-6.16111355 10.98697277 -6.16111355 10.98697277 -7 14 C-8.6292184 15.50323315 -10.32847366 16.9314804 -12.0625 18.3125 C-13.55136719 19.49972656 -13.55136719 19.49972656 -15.0703125 20.7109375 C-16.03710938 21.46632813 -17.00390625 22.22171875 -18 23 C-18.78117188 23.61101562 -19.56234375 24.22203125 -20.3671875 24.8515625 C-23.49997962 27.25139948 -26.46588945 29.24033826 -30 31 C-30.474375 31.474375 -30.94875 31.94875 -31.4375 32.4375 C-33.44475405 34.44475405 -35.47610418 35.70727287 -38 37 C-39.32 37 -40.64 37 -42 37 C-42.33 37.99 -42.66 38.98 -43 40 C-44.9609375 40.84375 -44.9609375 40.84375 -47.375 41.5 C-50.82812405 42.4248581 -50.82812405 42.4248581 -53.58203125 44.58984375 C-55 46 -55 46 -58.3125 46.0625 C-60.1378125 46.0315625 -60.1378125 46.0315625 -62 46 C-65.32186171 46.91114536 -65.32186171 46.91114536 -68 48 C-68.66 47.34 -69.32 46.68 -70 46 C-69.08057617 45.7071814 -69.08057617 45.7071814 -68.14257812 45.40844727 C-40.55575139 36.51288206 -18.02885985 23.2981643 0 0 Z " fill="#CFD1D3" transform="translate(590,418)"/>
<path d="M0 0 C-0.5775 0.268125 -1.155 0.53625 -1.75 0.8125 C-4.15829355 2.08354382 -6.02277703 3.11178052 -8 5 C-8.58122266 7.79951588 -8.58122266 7.79951588 -8.45410156 11.03198242 C-8.45379944 12.27304245 -8.45349731 13.51410248 -8.45318604 14.79277039 C-8.43275953 16.14700968 -8.41189555 17.50124245 -8.390625 18.85546875 C-8.38316337 20.24122807 -8.37747007 21.62699796 -8.37347412 23.01277161 C-8.35821123 26.65775759 -8.31892501 30.30210462 -8.2746582 33.94683838 C-8.23371889 37.66694495 -8.21546605 41.3871549 -8.1953125 45.10742188 C-8.15243033 52.40523901 -8.0841724 59.70252994 -8 67 C-8.66 66.67 -9.32 66.34 -10 66 C-10.35922049 55.1039636 -10.67562262 44.20740002 -10.94281006 33.30871582 C-10.97977625 31.81641774 -11.01782769 30.32414598 -11.05718994 28.83190918 C-11.17362592 24.408903 -11.25349948 19.9866168 -11.3125 15.5625 C-11.34214844 14.44576904 -11.37179688 13.32903809 -11.40234375 12.1784668 C-11.41007813 11.15148682 -11.4178125 10.12450684 -11.42578125 9.06640625 C-11.44036377 8.17896729 -11.45494629 7.29152832 -11.4699707 6.37719727 C-10.20167631 -0.03806639 -5.72552009 -0.44042462 0 0 Z " fill="#232222" transform="translate(186,533)"/>
<path d="M0 0 C-0.598125 0.268125 -1.19625 0.53625 -1.8125 0.8125 C-4.04327908 1.8893979 -4.04327908 1.8893979 -5.625 3.625 C-6.07875 4.07875 -6.5325 4.5325 -7 5 C-7.66 5 -8.32 5 -9 5 C-9.02126953 6.68029297 -9.02126953 6.68029297 -9.04296875 8.39453125 C-9.08986994 9.86722869 -9.13811734 11.33988368 -9.1875 12.8125 C-9.19330078 13.55048828 -9.19910156 14.28847656 -9.20507812 15.04882812 C-9.29296875 17.20703125 -9.29296875 17.20703125 -10 21 C-12.41015625 22.82421875 -12.41015625 22.82421875 -15 24 C-17.24166702 26.98888937 -18.81865828 29.45597484 -20 33 C-19.34 33.33 -18.68 33.66 -18 34 C-19.65 33.67 -21.3 33.34 -23 33 C-24.29721449 29.10835652 -24.13033993 26.10570774 -24 22 C-23.67 21.34 -23.34 20.68 -23 20 C-19.37 20 -15.74 20 -12 20 C-12.06960938 18.89140625 -12.13921875 17.7828125 -12.2109375 16.640625 C-12.26722523 15.177144 -12.32182432 13.71359738 -12.375 12.25 C-12.42527344 11.52039063 -12.47554687 10.79078125 -12.52734375 10.0390625 C-12.5859375 7.890625 -12.5859375 7.890625 -12 4 C-8.02039489 0.46257323 -5.28963489 -0.50377475 0 0 Z " fill="#141518" transform="translate(532,498)"/>
<path d="M0 0 C4.98919061 -0.8752966 4.98919061 -0.8752966 8 0 C10.16335322 2.31509142 11.72627522 4.71061227 13.359375 7.421875 C14.91730957 10.07995053 14.91730957 10.07995053 17.21484375 12.1953125 C17.80394531 12.79085938 18.39304687 13.38640625 19 14 C18.78842197 16.39788436 18.07207819 17.85584361 17 20 C8.93771737 17.31257246 4.1561955 6.87225031 0 0 Z " fill="#CECECE" transform="translate(400,406)"/>
<path d="M0 0 C2.475 0.495 2.475 0.495 5 1 C5.33 11.23 5.66 21.46 6 32 C5.01 31.34 4.02 30.68 3 30 C2.34 30.99 1.68 31.98 1 33 C1.01740234 31.94039062 1.01740234 31.94039062 1.03515625 30.859375 C1.12583225 20.5482188 0.57463581 10.29213777 0 0 Z " fill="#2A2C2E" transform="translate(336,543)"/>
<path d="M0 0 C1.14133398 3.42400193 0.80927716 4.87862493 0.125 8.375 C-1.05516403 14.8977985 -1.59480846 21.38898012 -2 28 C-4.64 28.66 -7.28 29.32 -10 30 C-9.10056487 26.30808016 -8.1773783 22.62249116 -7.25 18.9375 C-6.99734375 17.89916016 -6.7446875 16.86082031 -6.484375 15.79101562 C-4.99243454 9.91650005 -3.31764286 5.08464829 0 0 Z " fill="#828283" transform="translate(391,305)"/>
<path d="M0 0 C6.48979592 0.48979592 6.48979592 0.48979592 8.875 2.875 C11.86947242 8.53122568 11.80662893 14.95962942 10.1875 21.0625 C9 23 9 23 6 24 C6 17.4 6 10.8 6 4 C4.02 4 2.04 4 0 4 C-1.21693876 6.43387753 -1.31959896 8.41838846 -1.5625 11.125 C-1.64628906 12.03507812 -1.73007812 12.94515625 -1.81640625 13.8828125 C-1.87699219 14.58148438 -1.93757812 15.28015625 -2 16 C-2.33 16 -2.66 16 -3 16 C-3.08133791 14.08404032 -3.13934367 12.16708068 -3.1875 10.25 C-3.22230469 9.18265625 -3.25710938 8.1153125 -3.29296875 7.015625 C-2.97082786 3.69972145 -2.22851086 2.40983327 0 0 Z " fill="#525B5B" transform="translate(642,332)"/>
<path d="M0 0 C2.2744243 0.3965971 4.54453252 0.81800619 6.8125 1.25 C8.07707031 1.48203125 9.34164063 1.7140625 10.64453125 1.953125 C14 3 14 3 15.90625 4.90625 C17.29515501 7.56501102 17.66323086 10.03643157 18 13 C11.64529513 12.07240691 8.41125256 10.90139173 4 6 C1.33466965 4.680982 1.33466965 4.680982 -1 4 C-0.67 2.68 -0.34 1.36 0 0 Z " fill="#CBCDCE" transform="translate(445,439)"/>
<path d="M0 0 C0.66 0.33 1.32 0.66 2 1 C1.04454634 2.46022163 0.08553322 3.91811468 -0.875 5.375 C-1.40867187 6.18710937 -1.94234375 6.99921875 -2.4921875 7.8359375 C-4 10 -4 10 -6 12 C-8.86888581 12.17532289 -11.63992645 12.23137614 -14.5078125 12.1953125 C-15.76874222 12.19106766 -15.76874222 12.19106766 -17.05514526 12.18673706 C-19.74524046 12.1755243 -22.4350051 12.15041803 -25.125 12.125 C-26.94660978 12.1149716 -28.76822477 12.10584551 -30.58984375 12.09765625 C-35.06002358 12.07558142 -39.52995571 12.04104434 -44 12 C-44.33 11.34 -44.66 10.68 -45 10 C-43.27499268 10.02525757 -43.27499268 10.02525757 -41.51513672 10.05102539 C-37.23188182 10.10181218 -32.95041165 10.09325708 -28.66699219 10.06713867 C-26.816363 10.064064 -24.96563414 10.0768999 -23.11523438 10.10620117 C-12.64793917 10.73684275 -12.64793917 10.73684275 -3.41894531 6.92529297 C-1.89555544 4.64020816 -0.82972624 2.61096432 0 0 Z " fill="#1B1E1E" transform="translate(517,291)"/>
<path d="M0 0 C0.33 0 0.66 0 1 0 C1.28881271 5.47668775 1.57346857 10.9535711 1.85449219 16.43066406 C1.95039154 18.28879438 2.04737098 20.14686932 2.14550781 22.00488281 C3.65196825 50.56614289 3.65196825 50.56614289 2 58 C1.67 58 1.34 58 1 58 C-0.17891148 45.70582733 -0.11535979 33.4622763 -0.0625 21.125 C-0.05747274 19.06901151 -0.05291201 17.01302183 -0.04882812 14.95703125 C-0.03792482 9.97132408 -0.02072847 4.9856756 0 0 Z " fill="#222225" transform="translate(141,540)"/>
<path d="M0 0 C0.33 0 0.66 0 1 0 C2.26172899 13.65371014 2.10117918 27.30033933 2 41 C0.68 41.66 -0.64 42.32 -2 43 C-1.67 42.34 -1.34 41.68 -1 41 C-0.92510334 38.02192137 -0.90881969 35.06728794 -0.9375 32.08984375 C-0.94128662 31.20720352 -0.94507324 30.32456329 -0.94897461 29.41517639 C-0.96121941 26.58923544 -0.97985444 23.76339504 -1 20.9375 C-1.02647049 17.2174508 -1.04652302 13.49745112 -1.0625 9.77734375 C-1.07079834 8.91382797 -1.07909668 8.05031219 -1.08764648 7.16062927 C-1.09618727 5.10689613 -1.05341284 3.05305622 -1 1 C-0.67 0.67 -0.34 0.34 0 0 Z " fill="#151718" transform="translate(457,547)"/>
<path d="M0 0 C8.2253436 6.83851241 10.01606032 23.87530563 11 34 C11.27708436 39.33781616 11.1940176 44.66092306 11 50 C10.67 50 10.34 50 10 50 C10 46.7 10 43.4 10 40 C9.34 39.67 8.68 39.34 8 39 C7.65625 36.8828125 7.65625 36.8828125 7.5 34.125 C6.93003798 26.44551168 5.97529173 19.13605126 3 12 C1.79349461 8.02562932 0.74307014 4.08688577 0 0 Z " fill="#292B2B" transform="translate(601,300)"/>
<path d="M0 0 C-0.99 3.96 -1.98 7.92 -3 12 C-2.01 12.33 -1.02 12.66 0 13 C-0.99 13.495 -0.99 13.495 -2 14 C-6.8 10.55384615 -6.8 10.55384615 -7.8125 7.75 C-7.874375 7.1725 -7.93625 6.595 -8 6 C-8.99 6 -9.98 6 -11 6 C-11 4.35 -11 2.7 -11 1 C-3.375 -1.125 -3.375 -1.125 0 0 Z " fill="#71726F" transform="translate(878,539)"/>
<path d="M0 0 C0.33 0.99 0.66 1.98 1 3 C0.01 3.33 -0.98 3.66 -2 4 C-1.88638398 6.79256219 -1.7596411 9.58344118 -1.625 12.375 C-1.5940625 13.1690625 -1.563125 13.963125 -1.53125 14.78125 C-1.48183579 19.36667375 -1.48183579 19.36667375 1 23 C1 23.99 1 24.98 1 26 C1.99 26 2.98 26 4 26 C4 26.66 4 27.32 4 28 C-0.25742137 27.52695318 -2.25705098 25.1136178 -5 22 C-6.6477621 17.05671369 -7.21446946 10.92393594 -5.17578125 6.015625 C-3.6804399 3.76983353 -1.90395284 1.90395284 0 0 Z " fill="#212122" transform="translate(256,536)"/>
<path d="M0 0 C1.54117998 2.76601248 2.26880666 4.86858792 2.4140625 8.02734375 C2.45297607 8.80996582 2.49188965 9.59258789 2.53198242 10.39892578 C2.56267822 11.23665527 2.59337402 12.07438477 2.625 12.9375 C2.66149658 13.80616699 2.69799316 14.67483398 2.7355957 15.56982422 C2.99070091 22.25274431 3.13064511 28.93758883 3.1875 35.625 C3.20055176 36.53113037 3.21360352 37.43726074 3.22705078 38.37084961 C3.22817871 39.21010986 3.22930664 40.04937012 3.23046875 40.9140625 C3.23457764 41.6560791 3.23868652 42.3980957 3.24291992 43.16259766 C3 45 3 45 1 47 C0.15903762 41.18019117 -0.13501091 35.56278676 -0.09765625 29.6875 C-0.0962413 28.83317383 -0.09482635 27.97884766 -0.09336853 27.09863281 C-0.08781962 24.39905127 -0.07527697 21.69955601 -0.0625 19 C-0.05747839 17.15755329 -0.05291664 15.31510527 -0.04882812 13.47265625 C-0.03786699 8.98173814 -0.02063825 4.49088364 0 0 Z " fill="#1B1E22" transform="translate(490,372)"/>
<path d="M0 0 C0 3 0 3 -0.98046875 5.203125 C-2.26951007 8.73934563 -2.34261785 12.03502824 -2.3125 15.75 C-2.30758545 16.4608374 -2.3026709 17.1716748 -2.29760742 17.90405273 C-2.09384034 27.05894198 0.41099038 32.90044724 6 40 C1.56063049 38.64352598 -0.4156882 36.83191061 -3 33 C-5.35864937 28.43432872 -5.33322946 24.20817409 -5.3125 19.1875 C-5.32861328 18.41857422 -5.34472656 17.64964844 -5.36132812 16.85742188 C-5.36605057 11.26132456 -4.30944578 7.10775235 -2 2 C-1.34 1.34 -0.68 0.68 0 0 Z " fill="#6A6C6D" transform="translate(631,326)"/>
<path d="M0 0 C0.66 0.66 1.32 1.32 2 2 C1.566875 3.11375 1.566875 3.11375 1.125 4.25 C-0.1528263 8.509421 -0.75634823 12.6959473 -1.33984375 17.09765625 C-2.06848075 20.30107219 -3.25434299 22.22557993 -5 25 C-5.66400404 26.38204096 -6.30816207 27.7737075 -6.9375 29.171875 C-7.27523437 29.91824219 -7.61296875 30.66460937 -7.9609375 31.43359375 C-8.65948555 32.99088321 -9.35210646 34.55084365 -10.0390625 36.11328125 C-10.37679687 36.85449219 -10.71453125 37.59570312 -11.0625 38.359375 C-11.36285156 39.03452148 -11.66320312 39.70966797 -11.97265625 40.40527344 C-13 42 -13 42 -16 43 C-14.86308387 40.03589723 -13.61765054 37.14787558 -12.265625 34.27734375 C-7.05331147 23.11439195 -3.27085789 11.86924946 0 0 Z " fill="#C9CACC" transform="translate(609,372)"/>
<path d="M0 0 C0.66 0 1.32 0 2 0 C2.24492187 0.83917969 2.48984375 1.67835938 2.7421875 2.54296875 C5.61222679 11.77657791 9.35168001 20.29980241 13.69677734 28.94018555 C14.12297363 29.799104 14.54916992 30.65802246 14.98828125 31.54296875 C15.37540283 32.30633545 15.76252441 33.06970215 16.16137695 33.85620117 C17 36 17 36 17 40 C16.34 40 15.68 40 15 40 C14.91878906 39.33355469 14.83757812 38.66710937 14.75390625 37.98046875 C13.75767829 34.04201313 11.91732438 30.83788677 9.9375 27.3125 C6 20.25192308 6 20.25192308 6 18 C5.34 17.67 4.68 17.34 4 17 C2.40782612 15.40782612 2.4172363 13.49321162 2 11.3125 C1.82726562 10.41402344 1.65453125 9.51554687 1.4765625 8.58984375 C0.95061322 5.7316112 0.45326699 2.87069094 0 0 Z " fill="#CBCBCB" transform="translate(373,376)"/>
<path d="M0 0 C0.495 0.99 0.495 0.99 1 2 C-13.29987483 4.45265847 -27.5327274 4.20640314 -42 4 C-42.33 3.34 -42.66 2.68 -43 2 C-42.05157227 1.97494385 -41.10314453 1.9498877 -40.12597656 1.92407227 C-36.59981968 1.8288116 -33.07382041 1.72958559 -29.54785156 1.62768555 C-28.02315614 1.58443293 -26.49841531 1.54275115 -24.97363281 1.50268555 C-22.77915778 1.44474797 -20.58490932 1.38112205 -18.390625 1.31640625 C-17.37165131 1.29133751 -17.37165131 1.29133751 -16.33209229 1.26576233 C-10.74798897 1.09183542 -5.62432745 -0.10816014 0 0 Z " fill="#DBDDDF" transform="translate(519,465)"/>
<path d="M0 0 C1.16144531 0.11085938 2.32289063 0.22171875 3.51953125 0.3359375 C4.39996094 0.43132813 5.28039062 0.52671875 6.1875 0.625 C6.1875 0.955 6.1875 1.285 6.1875 1.625 C5.24648438 1.73457031 4.30546875 1.84414063 3.3359375 1.95703125 C2.09070313 2.11558594 0.84546875 2.27414062 -0.4375 2.4375 C-1.66726563 2.58832031 -2.89703125 2.73914063 -4.1640625 2.89453125 C-9.92758152 4.04846921 -13.48375915 5.79832576 -16.8125 10.625 C-17.4725 10.625 -18.1325 10.625 -18.8125 10.625 C-19.45638672 9.67367187 -19.45638672 9.67367187 -20.11328125 8.703125 C-22.27994979 6.05331428 -23.66844928 5.89420271 -27 5.375 C-27.90105469 5.22546875 -28.80210937 5.0759375 -29.73046875 4.921875 C-30.41753906 4.82390625 -31.10460937 4.7259375 -31.8125 4.625 C-31.8125 4.295 -31.8125 3.965 -31.8125 3.625 C-25.2125 3.625 -18.6125 3.625 -11.8125 3.625 C-11.8125 2.965 -11.8125 2.305 -11.8125 1.625 C-7.6285335 -0.43940531 -4.60614129 -0.4652668 0 0 Z " fill="#DFE1E3" transform="translate(475.8125,516.375)"/>
<path d="M0 0 C1.69140625 1.1796875 1.69140625 1.1796875 4.19140625 4.1171875 C4.56640625 7.9296875 4.56640625 7.9296875 4.19140625 11.1171875 C3.53140625 10.4571875 2.87140625 9.7971875 2.19140625 9.1171875 C2.19140625 7.7971875 2.19140625 6.4771875 2.19140625 5.1171875 C1.53140625 5.1171875 0.87140625 5.1171875 0.19140625 5.1171875 C-0.13859375 4.4571875 -0.46859375 3.7971875 -0.80859375 3.1171875 C-5.02331552 1.67214004 -7.74528835 2.51076443 -11.80859375 4.1171875 C-11.80859375 3.4571875 -11.80859375 2.7971875 -11.80859375 2.1171875 C-18.24359375 4.0971875 -18.24359375 4.0971875 -24.80859375 6.1171875 C-24.80859375 5.1271875 -24.80859375 4.1371875 -24.80859375 3.1171875 C-5.28176167 -2.57813852 -5.28176167 -2.57813852 0 0 Z " fill="#E3E4E6" transform="translate(403.80859375,538.8828125)"/>
<path d="M0 0 C2.375 2 2.375 2 4 4 C1 4 -2 4 -5 4 C-8.17466443 5.24240686 -8.17466443 5.24240686 -10 8 C-10.26955833 10.33189345 -10.44507377 12.66321507 -10.62109375 15.00390625 C-10.74613281 15.66261719 -10.87117187 16.32132813 -11 17 C-11.66 17.33 -12.32 17.66 -13 18 C-13.13536022 15.91846065 -13.23215465 13.83438794 -13.3125 11.75 C-13.37050781 10.58984375 -13.42851562 9.4296875 -13.48828125 8.234375 C-13 5 -13 5 -10.60546875 2.640625 C-6.7416369 0.20762743 -4.6203121 -0.46203121 0 0 Z " fill="#191B1D" transform="translate(153,511)"/>
<path d="M0 0 C2.56170227 0.35333824 3.76699662 0.76301852 5.6015625 2.62890625 C7.42810947 5.72587275 7.43840977 8.11290075 7.5625 11.6875 C7.63987177 13.79529466 7.76900193 15.9034732 8 18 C8.66 18.33 9.32 18.66 10 19 C8.35 19 6.7 19 5 19 C3.18088082 14.39156474 2.64449829 10.16420959 2.34375 5.26953125 C2.12221978 2.72416831 2.12221978 2.72416831 0 0 Z " fill="#131519" transform="translate(532,499)"/>
<path d="M0 0 C-2.72774784 1.44833444 -5.33402765 2.47562971 -8.30859375 3.296875 C-9.13238525 3.53075928 -9.95617676 3.76464355 -10.80493164 4.00561523 C-12.10805298 4.37408569 -12.10805298 4.37408569 -13.4375 4.75 C-20.89106666 6.89896441 -27.66876057 9.41721127 -34.56640625 12.99609375 C-37 14 -37 14 -40 13 C-37 11 -37 11 -34 11 C-34 10.34 -34 9.68 -34 9 C-33.37351562 8.72285156 -32.74703125 8.44570312 -32.1015625 8.16015625 C-31.28429687 7.79792969 -30.46703125 7.43570313 -29.625 7.0625 C-28.40683594 6.52302734 -28.40683594 6.52302734 -27.1640625 5.97265625 C-25.76316215 5.3430097 -24.37374716 4.68687358 -23 4 C-21.63104019 3.6620203 -20.25474153 3.35335144 -18.875 3.0625 C-15.82649952 2.41169653 -12.8203194 1.69215325 -9.8125 0.875 C-6.36952237 0.08480841 -3.50992289 -0.17549614 0 0 Z " fill="#CED1D0" transform="translate(470,225)"/>
<path d="M0 0 C0 0.33 0 0.66 0 1 C-1.01320313 1.18175781 -1.01320313 1.18175781 -2.046875 1.3671875 C-2.93890625 1.53476562 -3.8309375 1.70234375 -4.75 1.875 C-6.07257813 2.11863281 -6.07257813 2.11863281 -7.421875 2.3671875 C-9.98502375 2.89028675 -9.98502375 2.89028675 -12.078125 4.0703125 C-14 5 -14 5 -18 5 C-18 5.66 -18 6.32 -18 7 C-20.64 7.33 -23.28 7.66 -26 8 C-25 5 -25 5 -22.48046875 3.61328125 C-14.72272727 0.54883533 -8.32611174 -0.67509014 0 0 Z " fill="#1D2121" transform="translate(402,551)"/>
<path d="M0 0 C0.92683594 0.05671875 1.85367187 0.1134375 2.80859375 0.171875 C5.08160878 0.31247387 7.35336963 0.46378752 9.625 0.625 C9.625 0.955 9.625 1.285 9.625 1.625 C7.93697266 1.62886719 7.93697266 1.62886719 6.21484375 1.6328125 C-4.96008215 1.84693842 -13.2570537 3.87473131 -23.375 8.625 C-25.03686795 9.30354046 -26.70170601 9.97514661 -28.375 10.625 C-28.375 9.635 -28.375 8.645 -28.375 7.625 C-22.375 5.625 -22.375 5.625 -16.375 3.625 C-16.375 2.965 -16.375 2.305 -16.375 1.625 C-10.79183083 -0.80488426 -5.92192307 -0.42239109 0 0 Z " fill="#D9DBDB" transform="translate(398.375,520.375)"/>
<path d="M0 0 C1.1446875 0.3403125 1.1446875 0.3403125 2.3125 0.6875 C0.96320536 4.52413072 -0.76501025 7.33922569 -3.3125 10.5 C-3.94414063 11.29019531 -4.57578125 12.08039063 -5.2265625 12.89453125 C-5.70867188 13.48621094 -6.19078125 14.07789063 -6.6875 14.6875 C-6.6875 12.06636292 -6.37457555 10.17814888 -5.6875 7.6875 C-6.3475 7.3575 -7.0075 7.0275 -7.6875 6.6875 C-4.45731707 -0.51829268 -4.45731707 -0.51829268 0 0 Z " fill="#CACBCC" transform="translate(581.6875,404.3125)"/>
<path d="M0 0 C2.64 0.33 5.28 0.66 8 1 C8 1.33 8 1.66 8 2 C6.48019531 2.39832031 6.48019531 2.39832031 4.9296875 2.8046875 C3.57809823 3.16135689 2.22653722 3.51813343 0.875 3.875 C0.20984375 4.04902344 -0.4553125 4.22304688 -1.140625 4.40234375 C-3.09801127 4.92047541 -5.04941255 5.45688738 -7 6 C-8.69769531 6.46792969 -8.69769531 6.46792969 -10.4296875 6.9453125 C-11.27789062 7.29335938 -12.12609375 7.64140625 -13 8 C-13.33 8.99 -13.66 9.98 -14 11 C-14.66 11 -15.32 11 -16 11 C-16.0825 10.401875 -16.165 9.80375 -16.25 9.1875 C-17.20455872 6.4033704 -18.57132271 5.56688858 -21 4 C-19.824375 4.20625 -18.64875 4.4125 -17.4375 4.625 C-13.18965442 5.16440896 -10.07755739 4.3591858 -6 3 C-4.00511766 2.63729412 -2.0062189 2.29359301 0 2 C0 1.34 0 0.68 0 0 Z " fill="#D1D3D3" transform="translate(207,528)"/>
<path d="M0 0 C0.33 0.66 0.66 1.32 1 2 C2.65614657 2.38218767 4.32457024 2.71395102 6 3 C6.66 3.33 7.32 3.66 8 4 C8 4.99 8 5.98 8 7 C8.66 7 9.32 7 10 7 C11.33979115 14.26366109 12.43069422 20.70345948 11 28 C10.67 28 10.34 28 10 28 C9.96261719 26.90300781 9.92523438 25.80601562 9.88671875 24.67578125 C9.82103347 23.22132143 9.75458701 21.76689584 9.6875 20.3125 C9.66494141 19.59126953 9.64238281 18.87003906 9.61914062 18.12695312 C9.34549601 12.67893759 8.08245637 9.3227398 4.375 5.1875 C0.69666095 3.34833047 -2.96234695 3.76705848 -7 4 C-6.67 3.34 -6.34 2.68 -6 2 C-4.02 2 -2.04 2 0 2 C0 1.34 0 0.68 0 0 Z " fill="#D0D2D3" transform="translate(151,508)"/>
<path d="M0 0 C0.66 0.33 1.32 0.66 2 1 C1.03513672 1.79470703 1.03513672 1.79470703 0.05078125 2.60546875 C-3.95480628 7.28246905 -3.25132422 14.48146086 -2.828125 20.40625 C-2.61338947 21.94729322 -2.31875321 23.47706798 -2 25 C-5.79207765 21.37279529 -6.23767186 19.07464114 -6.4375 13.8125 C-6.43223524 9.06368788 -6.16278475 6.30423739 -3 2.6875 C-1.3125 1.07421875 -1.3125 1.07421875 0 0 Z " fill="#131415" transform="translate(373,559)"/>
<path d="M0 0 C2.3828125 -0.29296875 2.3828125 -0.29296875 5.125 -0.1875 C6.03507812 -0.16042969 6.94515625 -0.13335938 7.8828125 -0.10546875 C8.58148438 -0.07066406 9.28015625 -0.03585937 10 0 C10 0.33 10 0.66 10 1 C7.94921875 1.22786458 5.8984375 1.45572917 3.84765625 1.68359375 C1.98859771 1.81886614 1.98859771 1.81886614 1 3 C0.77246643 4.7037908 0.60526762 6.41573499 0.46484375 8.12890625 C0.37783203 9.16337891 0.29082031 10.19785156 0.20117188 11.26367188 C0.11416016 12.35228516 0.02714844 13.44089844 -0.0625 14.5625 C-0.15337891 15.65498047 -0.24425781 16.74746094 -0.33789062 17.87304688 C-0.56262811 20.58172492 -0.78314089 23.29068166 -1 26 C-1.33 26 -1.66 26 -2 26 C-2.05799124 22.22923111 -2.09359306 18.45857666 -2.125 14.6875 C-2.14175781 13.61564453 -2.15851563 12.54378906 -2.17578125 11.43945312 C-2.18222656 10.41142578 -2.18867188 9.38339844 -2.1953125 8.32421875 C-2.20578613 7.37635498 -2.21625977 6.42849121 -2.22705078 5.4519043 C-2 3 -2 3 0 0 Z " fill="#1C1D1C" transform="translate(442,522)"/>
<path d="M0 0 C2.97 0.495 2.97 0.495 6 1 C6 4 6 4 4.5 5.6875 C4.005 6.120625 3.51 6.55375 3 7 C3.928125 7.103125 4.85625 7.20625 5.8125 7.3125 C9.03254358 8.0070192 10.02579865 8.47740939 12 11 C6.66666667 9.66666667 1.33333333 8.33333333 -4 7 C-3.34 6.5875 -2.68 6.175 -2 5.75 C-1.34 5.1725 -0.68 4.595 0 4 C0 2.68 0 1.36 0 0 Z " fill="#363736" transform="translate(533,344)"/>
<path d="M0 0 C0.66 0 1.32 0 2 0 C3.03026944 6.69675136 3.10152799 13.2314676 3 20 C2.01 19.67 1.02 19.34 0 19 C0 12.73 0 6.46 0 0 Z " fill="#212323" transform="translate(426,556)"/>
<path d="M0 0 C6.38197767 0.48165869 6.38197767 0.48165869 8.9375 2.625 C10.37148358 5.83037505 10.20006114 8.53227365 10 12 C8.35173889 9.03312999 7.55728913 6.34373475 7 3 C4.69 2.67 2.38 2.34 0 2 C-0.66 6.62 -1.32 11.24 -2 16 C-2.33 16 -2.66 16 -3 16 C-3.08133791 14.08404032 -3.13934367 12.16708068 -3.1875 10.25 C-3.22230469 9.18265625 -3.25710938 8.1153125 -3.29296875 7.015625 C-2.97082786 3.69972145 -2.22851086 2.40983327 0 0 Z " fill="#343839" transform="translate(642,332)"/>
<path d="M0 0 C2 1 2 1 3.25 3.25 C5.36760398 6.57766339 7.50932926 9.15030437 11 11 C14.33431372 11.68281163 17.60115933 11.92611216 21 12 C20.67 12.66 20.34 13.32 20 14 C14.15554525 14.64938386 10.89167773 14.44962926 6.0625 10.9375 C2.11700855 7.56939754 0.72764611 5.09352275 0 0 Z " fill="#282829" transform="translate(370,580)"/>
<path d="M0 0 C1.26112839 3.78338516 0.54862677 5.70275696 -0.375 9.5625 C-1.5685108 14.77398382 -2.39991521 19.77420572 -2.69140625 25.109375 C-3 27 -3 27 -5 29 C-5.11044961 22.26257354 -4.70132913 15.70019789 -4 9 C-3.34 9 -2.68 9 -2 9 C-1.7834375 7.329375 -1.7834375 7.329375 -1.5625 5.625 C-1 2 -1 2 0 0 Z " fill="#C3C6C5" transform="translate(374,309)"/>
<path d="M0 0 C-1.65 0.33 -3.3 0.66 -5 1 C-5.33 3.97 -5.66 6.94 -6 10 C-3.36 10.66 -0.72 11.32 2 12 C2 12.33 2 12.66 2 13 C-2.35368069 13.42683144 -4.37058208 13.44583769 -8 10.875 C-10 8 -10 8 -10.125 4.875 C-9 2 -9 2 -6.6875 0.0625 C-3.82681578 -1.06846818 -2.7949702 -1.13869156 0 0 Z " fill="#E2E4E6" transform="translate(395,566)"/>
<path d="M0 0 C0.80179687 0.00451172 1.60359375 0.00902344 2.4296875 0.01367188 C4.41149006 0.02546832 6.39325433 0.04340395 8.375 0.0625 C8.375 0.7225 8.375 1.3825 8.375 2.0625 C4.02167264 2.90273188 -0.06942519 3.17020995 -4.5 3.125 C-5.65242188 3.11597656 -6.80484375 3.10695312 -7.9921875 3.09765625 C-8.86101562 3.08605469 -9.72984375 3.07445312 -10.625 3.0625 C-10.625 2.4025 -10.625 1.7425 -10.625 1.0625 C-7.31505287 -0.59247356 -3.63377 -0.03834335 0 0 Z " fill="#2B363B" transform="translate(473.625,235.9375)"/>
<path d="M0 0 C1.98 0 3.96 0 6 0 C5.02208496 0.53040894 5.02208496 0.53040894 4.02441406 1.0715332 C1.69022758 2.89849036 1.69022758 2.89849036 1.54589844 6.09448242 C1.5668457 7.33560791 1.58779297 8.5767334 1.609375 9.85546875 C1.61503479 10.51710526 1.62069458 11.17874176 1.62652588 11.86042786 C1.64888753 13.97019332 1.69907629 16.07824952 1.75 18.1875 C1.7700656 19.61911606 1.78831628 21.0507588 1.8046875 22.48242188 C1.84874931 25.98883515 1.91777223 29.49425072 2 33 C1.34 32.67 0.68 32.34 0 32 C0 21.44 0 10.88 0 0 Z " fill="#E0E3E5" transform="translate(539,531)"/>
<path d="M0 0 C-3.38103567 2.97531139 -6.71176223 3.80882284 -11 5 C-12.95216435 6.95216435 -13.84826645 8.53199953 -15 11 C-15 8.36 -15 5.72 -15 3 C-13.25531628 2.29911844 -11.50398839 1.61475991 -9.75 0.9375 C-8.77546875 0.55464844 -7.8009375 0.17179687 -6.796875 -0.22265625 C-3.95992605 -1.01113787 -2.70590448 -1.02437812 0 0 Z " fill="#E9EDEE" transform="translate(432,362)"/>
<path d="M0 0 C2 2 2 2 2.22705078 4.06298828 C2.21657715 4.89040527 2.20610352 5.71782227 2.1953125 6.5703125 C2.18886719 7.46621094 2.18242187 8.36210938 2.17578125 9.28515625 C2.15902344 10.22230469 2.14226562 11.15945313 2.125 12.125 C2.11597656 13.06988281 2.10695312 14.01476562 2.09765625 14.98828125 C2.07404522 17.32577292 2.04111516 19.66276123 2 22 C1.34 22 0.68 22 0 22 C-0.19502282 19.08365878 -0.38129328 16.16720455 -0.5625 13.25 C-0.61857422 12.425 -0.67464844 11.6 -0.73242188 10.75 C-0.78076172 9.95078125 -0.82910156 9.1515625 -0.87890625 8.328125 C-0.9260376 7.5949707 -0.97316895 6.86181641 -1.02172852 6.10644531 C-0.99913793 3.91642774 -0.61487456 2.09512813 0 0 Z " fill="#202224" transform="translate(193,578)"/>
<path d="M0 0 C17.02030457 3.02030457 17.02030457 3.02030457 21 7 C21.125 9.625 21.125 9.625 21 12 C20.01 12 19.02 12 18 12 C18.33 11.01 18.66 10.02 19 9 C17.62514468 7.45833358 17.62514468 7.45833358 16 6 C15.34 6 14.68 6 14 6 C14 5.34 14 4.68 14 4 C13.01 4 12.02 4 11 4 C10.67 4.66 10.34 5.32 10 6 C9.67 5.34 9.34 4.68 9 4 C6.63804589 3.39397335 6.63804589 3.39397335 4 3 C2.66457061 2.67516582 1.33038449 2.3449145 0 2 C0 1.34 0 0.68 0 0 Z " fill="#D9DADC" transform="translate(266,570)"/>
<path d="M0 0 C0.33 0.66 0.66 1.32 1 2 C0.34 2 -0.32 2 -1 2 C-1 2.66 -1 3.32 -1 4 C-4.45584271 6.57178992 -7.84297252 8.79664994 -12 10 C-13.32 9.67 -14.64 9.34 -16 9 C-10.72 6.03 -5.44 3.06 0 0 Z " fill="#2E3332" transform="translate(549,439)"/>
<path d="M0 0 C1.7711042 2.6566563 2.46406077 4.27265499 3.3125 7.25 C4.79309444 11.91310928 6.98439163 15.16936234 10 19 C5.57673622 17.64844718 3.59587018 15.80109562 1 12 C0.03929566 9.11788698 -0.10581883 7.30149956 -0.0625 4.3125 C-0.05347656 3.50425781 -0.04445313 2.69601562 -0.03515625 1.86328125 C-0.02355469 1.24839844 -0.01195312 0.63351562 0 0 Z " fill="#4C4C4E" transform="translate(627,347)"/>
<path d="M0 0 C3.34673689 2.68723286 4.33487927 5.97099985 5.75 9.9375 C6.19859375 11.16339844 6.6471875 12.38929688 7.109375 13.65234375 C7.93772563 16.76592484 8.19760721 18.08630929 7 21 C3.53874088 14.32471455 1.34539564 7.39967604 0 0 Z " fill="#363638" transform="translate(601,300)"/>
<path d="M0 0 C2.93447357 2.93447357 2.46158423 6.18259456 2.625 10.125 C2.66367187 10.87910156 2.70234375 11.63320313 2.7421875 12.41015625 C2.83651031 14.27303184 2.91934662 16.13648255 3 18 C1.51171875 16.98046875 1.51171875 16.98046875 0 15 C-0.2172101 12.35003674 -0.28351554 9.94923442 -0.1875 7.3125 C-0.17396484 6.61060547 -0.16042969 5.90871094 -0.14648438 5.18554688 C-0.11120182 3.45670171 -0.05739583 1.72825235 0 0 Z M-2 15 C-1.01 15.495 -1.01 15.495 0 16 C-0.99 17.485 -0.99 17.485 -2 19 C-2 17.68 -2 16.36 -2 15 Z " fill="#1B1D1E" transform="translate(339,557)"/>
<path d="M0 0 C-1.0625 2 -1.0625 2 -3 4 C-5.33167378 4.08798769 -7.66800612 4.07905064 -10 4 C-13.32186171 4.91114536 -13.32186171 4.91114536 -16 6 C-16.66 5.34 -17.32 4.68 -18 4 C-15.56592995 3.13475247 -13.12856816 2.28257135 -10.6875 1.4375 C-9.99720703 1.19064453 -9.30691406 0.94378906 -8.59570312 0.68945312 C-3.33984375 -1.11328125 -3.33984375 -1.11328125 0 0 Z " fill="#CACECF" transform="translate(538,460)"/>
<path d="M0 0 C0 3.91225923 -1.33326228 5.10218661 -3.6875 8.1875 C-7.04673456 12.67443497 -10.10405302 17.20358781 -13 22 C-13.33 21.34 -13.66 20.68 -14 20 C-13.0625 17.375 -13.0625 17.375 -12 15 C-11.34 15 -10.68 15 -10 15 C-9.71125 14.071875 -9.4225 13.14375 -9.125 12.1875 C-8 9 -8 9 -6 6 C-5.34 6 -4.68 6 -4 6 C-3.566875 5.071875 -3.566875 5.071875 -3.125 4.125 C-2 2 -2 2 0 0 Z " fill="#CDD0CF" transform="translate(398,266)"/>
<path d="M0 0 C0.99 0.495 0.99 0.495 2 1 C5.57091981 1.19912192 9.14002802 1.31857375 12.71484375 1.42578125 C16 2 16 2 17.9296875 3.77734375 C19.63672834 7.32225703 19.19475025 10.104995 19 14 C18.01 14.495 18.01 14.495 17 15 C17.04125 14.071875 17.0825 13.14375 17.125 12.1875 C17.27136339 8.84190281 17.27136339 8.84190281 15 6 C15 5.01 15 4.02 15 3 C10.38 3 5.76 3 1 3 C0.67 2.01 0.34 1.02 0 0 Z " fill="#141618" transform="translate(539,565)"/>
<path d="M0 0 C2.58340384 -0.02703562 5.16652308 -0.04685611 7.75 -0.0625 C8.47960937 -0.07087891 9.20921875 -0.07925781 9.9609375 -0.08789062 C13.48670558 -0.10391684 16.61034916 0.04707287 20 1 C20 2.65 20 4.3 20 6 C18.5459375 5.01 18.5459375 5.01 17.0625 4 C12.71570927 1.51863363 8.90080693 1.37852086 4 2 C0.58528076 2.88460028 0.58528076 2.88460028 -2 4 C-2 3.34 -2 2.68 -2 2 C-1.34 2 -0.68 2 0 2 C0 1.34 0 0.68 0 0 Z " fill="#232426" transform="translate(200,547)"/>
<path d="M0 0 C0.66 0.33 1.32 0.66 2 1 C1.01 1.33 0.02 1.66 -1 2 C-1.04125 3.258125 -1.0825 4.51625 -1.125 5.8125 C-1.14820313 6.52019531 -1.17140625 7.22789062 -1.1953125 7.95703125 C-1.13254462 10.31359719 -1.13254462 10.31359719 1 13 C-1.67611698 12.63088042 -2.8431469 12.15144437 -4.8125 10.25 C-6 8 -6 8 -6 5.4375 C-4.6757081 2.2095385 -3.14699485 1.3816075 0 0 Z " fill="#1A1C1E" transform="translate(256,582)"/>
<path d="M0 0 C0.721875 0.515625 1.44375 1.03125 2.1875 1.5625 C5.56366014 3.28809296 6.42285864 2.85170032 10 2 C12.34165499 2.26871451 14.67884289 2.59038404 17 3 C17.99 5.97 18.98 8.94 20 12 C19.01 12.495 19.01 12.495 18 13 C17.01 10.36 16.02 7.72 15 5 C14.08476562 5.02320313 13.16953125 5.04640625 12.2265625 5.0703125 C10.44378906 5.09738281 10.44378906 5.09738281 8.625 5.125 C6.84996094 5.15980469 6.84996094 5.15980469 5.0390625 5.1953125 C2 5 2 5 0 3 C0 2.01 0 1.02 0 0 Z " fill="#D9DBDD" transform="translate(343,574)"/>
<path d="M0 0 C1.18851562 0.00902344 2.37703125 0.01804687 3.6015625 0.02734375 C4.51679688 0.03894531 5.43203125 0.05054688 6.375 0.0625 C2.30774566 2.7740029 -0.7797611 2.64117488 -5.625 3.0625 C-5.955 7.3525 -6.285 11.6425 -6.625 16.0625 C-6.955 16.0625 -7.285 16.0625 -7.625 16.0625 C-7.955 11.1125 -8.285 6.1625 -8.625 1.0625 C-5.74084117 -0.37957941 -3.20778472 -0.03144887 0 0 Z " fill="#E0E2E4" transform="translate(348.625,540.9375)"/>
<path d="M0 0 C-0.66 3.3 -1.32 6.6 -2 10 C-2.99 10 -3.98 10 -5 10 C-5 7.03 -5 4.06 -5 1 C-5.99 0.67 -6.98 0.34 -8 0 C-4.71303767 -0.79953138 -3.28976808 -1.09658936 0 0 Z " fill="#828281" transform="translate(878,539)"/>
<path d="M0 0 C0.33 0.66 0.66 1.32 1 2 C-1.94927526 2.98309175 -3.30724624 2.97837852 -6.3125 2.75 C-9.95389382 2.67860012 -11.77211842 3.13481942 -14.5625 5.5 C-15.7690625 6.7375 -15.7690625 6.7375 -17 8 C-16.08516297 4.615103 -15.33774897 3.23889561 -12.4375 1.1875 C-8.15755957 -0.29102488 -4.47765137 -0.26865908 0 0 Z " fill="#C2C3C5" transform="translate(213,548)"/>
<path d="M0 0 C0.66 0.33 1.32 0.66 2 1 C1.01 2.485 1.01 2.485 0 4 C-0.38406884 6.63917716 -0.38406884 6.63917716 -0.5 9.5 C-0.70653577 13.34156538 -0.8110445 14.71656676 -3 18 C-3.08074203 15.37438891 -3.1403623 12.75124324 -3.1875 10.125 C-3.21263672 9.37863281 -3.23777344 8.63226562 -3.26367188 7.86328125 C-3.29296875 5.6953125 -3.29296875 5.6953125 -3 2 C-2.01 1.34 -1.02 0.68 0 0 Z " fill="#1D1D21" transform="translate(325,510)"/>
<path d="M0 0 C0.66 0.33 1.32 0.66 2 1 C1.67 1.99 1.34 2.98 1 4 C0.195625 4.391875 -0.60875 4.78375 -1.4375 5.1875 C-5.23509034 7.87360048 -5.18997118 10.508022 -6 15 C-6.33 15 -6.66 15 -7 15 C-7.29033956 11.61915708 -7.43930648 8.37154491 -7 5 C-4.73382807 2.55491976 -2.92915586 1.46457793 0 0 Z " fill="#F0F1F4" transform="translate(505,368)"/>
<path d="M0 0 C-0.99 0.33 -1.98 0.66 -3 1 C-3 1.66 -3 2.32 -3 3 C-5.64 3.99 -8.28 4.98 -11 6 C-11.33 4.68 -11.66 3.36 -12 2 C-8.09971775 -0.60018816 -4.52565431 -0.15085514 0 0 Z " fill="#151518" transform="translate(321,528)"/>
<path d="M0 0 C1.155 0.165 2.31 0.33 3.5 0.5 C7.69907803 1.03238311 11.77063041 1.07552446 16 1 C15.67 1.66 15.34 2.32 15 3 C10.42860035 4.2799919 6.84337141 4.34030776 2.4375 2.5625 C1.633125 2.046875 0.82875 1.53125 0 1 C0 0.67 0 0.34 0 0 Z " fill="#C9CBCD" transform="translate(267,583)"/>
<path d="M0 0 C0.33 0 0.66 0 1 0 C1.99 6.6 2.98 13.2 4 20 C3.01 19.67 2.02 19.34 1 19 C-0.25433458 15.23699626 -0.10695422 11.72789091 -0.0625 7.8125 C-0.05798828 7.06291016 -0.05347656 6.31332031 -0.04882812 5.54101562 C-0.03706354 3.69397617 -0.01912865 1.84697787 0 0 Z " fill="#1D1D20" transform="translate(485,569)"/>
<path d="M0 0 C1.61648438 0.04060547 1.61648438 0.04060547 3.265625 0.08203125 C4.08546875 0.11683594 4.9053125 0.15164063 5.75 0.1875 C5.42 1.1775 5.09 2.1675 4.75 3.1875 C4.75 2.5275 4.75 1.8675 4.75 1.1875 C3.29077307 1.30159593 1.83259402 1.42915544 0.375 1.5625 C-0.43710937 1.63210938 -1.24921875 1.70171875 -2.0859375 1.7734375 C-4.45334191 2.01642588 -4.45334191 2.01642588 -6.25 4.1875 C-8.23768394 5.53912508 -10.2366347 6.87443567 -12.25 8.1875 C-10.05503438 1.41968933 -7.00703922 -0.22849041 0 0 Z " fill="#DDDFE1" transform="translate(472.25,535.8125)"/>
<path d="M0 0 C-0.375 2.4375 -0.375 2.4375 -1 5 C-1.99 5.495 -1.99 5.495 -3 6 C-3.72693904 7.97888961 -4.39816251 9.97954558 -5 12 C-5.33 12 -5.66 12 -6 12 C-6.08131463 10.56344146 -6.13933559 9.1255517 -6.1875 7.6875 C-6.22230469 6.88699219 -6.25710938 6.08648437 -6.29296875 5.26171875 C-6 3 -6 3 -4.67578125 1.20703125 C-3 0 -3 0 0 0 Z " fill="#282727" transform="translate(471,299)"/>
<path d="M0 0 C4.875 3.75 4.875 3.75 6 6 C6.99 6.66 7.98 7.32 9 8 C10.77529344 10.66294015 11.98568358 12.95705074 13 16 C8.93570695 14.64523565 7.29023202 11.86732088 4.8125 8.5625 C4.34908203 7.96373047 3.88566406 7.36496094 3.40820312 6.74804688 C0 2.26568253 0 2.26568253 0 0 Z " fill="#CCCED0" transform="translate(578,261)"/>
<path d="M0 0 C-2.9330256 3.45445238 -5.34756946 3.64554512 -9.703125 4.015625 C-12.75472939 3.99486579 -15.21818751 3.21258493 -18 2 C-12.04342875 0.33216005 -6.16724044 -0.12586205 0 0 Z " fill="#9FA5A3" transform="translate(742,556)"/>
<path d="M0 0 C0.66 0.33 1.32 0.66 2 1 C1.45730469 1.42410156 0.91460937 1.84820313 0.35546875 2.28515625 C-4.40708273 6.18959035 -7.08230551 9.12706064 -9 15 C-9.66 14.67 -10.32 14.34 -11 14 C-9.67519115 8.56828371 -7.06568173 4.75532435 -3 1 C-2.01 0.67 -1.02 0.34 0 0 Z " fill="#D2D4D4" transform="translate(259,532)"/>
<path d="M0 0 C-3 2 -3 2 -5.125 2.6875 C-7.42815024 3.98026094 -7.42815024 3.98026094 -7.75 7.625 C-7.8325 8.73875 -7.915 9.8525 -8 11 C-10.41703243 8.58296757 -10.83849795 7.39154295 -11 4 C-8.05685327 -0.53735121 -5.12254057 -0.39404158 0 0 Z " fill="#E1E1E3" transform="translate(316,527)"/>
<path d="M0 0 C-2.24250636 5.00251418 -5.15327394 7.45546882 -10 10 C-10.99 10 -11.98 10 -13 10 C-11.73232923 8.70522938 -10.46073776 7.41429661 -9.1875 6.125 C-8.47980469 5.40570313 -7.77210938 4.68640625 -7.04296875 3.9453125 C-2.89959839 0 -2.89959839 0 0 0 Z " fill="#282A2C" transform="translate(576,420)"/>
<path d="M0 0 C5.03704116 0.47971821 8.06364033 1.81741133 12 5 C13.84387813 7.25524202 15.40124532 9.55484578 17 12 C16.01 12.495 16.01 12.495 15 13 C14.38125 12.20335937 14.38125 12.20335937 13.75 11.390625 C9.59140665 6.3037742 6.05571141 3.54977323 0 1 C0 0.67 0 0.34 0 0 Z " fill="#DADCDD" transform="translate(484,518)"/>
<path d="M0 0 C0.66 1.98 1.32 3.96 2 6 C-0.97 5.505 -0.97 5.505 -4 5 C-4.33 5.66 -4.66 6.32 -5 7 C-6.32 6.67 -7.64 6.34 -9 6 C-7.8803014 4.99406757 -6.7540588 3.9954151 -5.625 3 C-4.68527344 2.1646875 -4.68527344 2.1646875 -3.7265625 1.3125 C-2 0 -2 0 0 0 Z " fill="#CCCECF" transform="translate(414,585)"/>
<path d="M0 0 C1.41687119 4.25061356 0.19320039 6.71851625 -1 11 C-1.99 10.34 -2.98 9.68 -4 9 C-4.4375 6.0625 -4.4375 6.0625 -4 3 C-2 1.125 -2 1.125 0 0 Z " fill="#171719" transform="translate(374,530)"/>
<path d="M0 0 C0.33 0 0.66 0 1 0 C0.94014621 2.29240007 0.85140973 4.58406206 0.75 6.875 C0.70359375 8.15117187 0.6571875 9.42734375 0.609375 10.7421875 C0.40828125 11.81726563 0.2071875 12.89234375 0 14 C-1.98 14.99 -1.98 14.99 -4 16 C-2.68 10.72 -1.36 5.44 0 0 Z " fill="#B9BABA" transform="translate(385,319)"/>
<path d="M0 0 C0.33 0 0.66 0 1 0 C1.12117187 0.84304688 1.24234375 1.68609375 1.3671875 2.5546875 C1.53476562 3.65039062 1.70234375 4.74609375 1.875 5.875 C2.03742187 6.96554687 2.19984375 8.05609375 2.3671875 9.1796875 C2.76256513 12.11932714 2.76256513 12.11932714 5 14 C4.625 16.125 4.625 16.125 4 18 C-0.94096084 12.44141905 -0.4185231 7.1846465 0 0 Z " fill="#252628" transform="translate(522,562)"/>
<path d="M0 0 C3.16115776 1.36983503 3.9927092 1.9890638 6 5 C6.265625 6.9375 6.265625 6.9375 6.25 9 C6.25515625 9.680625 6.2603125 10.36125 6.265625 11.0625 C6 13 6 13 4 16 C3.96261719 15.34773437 3.92523438 14.69546875 3.88671875 14.0234375 C3.48506238 8.68377043 2.83238391 4.6795908 0 0 Z " fill="#212121" transform="translate(480,536)"/>
<path d="M0 0 C2.375 2 2.375 2 4 4 C-0.6573692 4.13306769 -4.58574544 3.47141819 -9 2 C-5.50875983 -0.32749345 -4.10777749 -0.50299316 0 0 Z " fill="#252728" transform="translate(153,511)"/>
<path d="M0 0 C-2.48434437 2.34290892 -3.77731593 2.97982934 -7.234375 3.29296875 C-8.39453125 3.25816406 -9.5546875 3.22335937 -10.75 3.1875 C-11.92046875 3.16042969 -13.0909375 3.13335938 -14.296875 3.10546875 C-15.18890625 3.07066406 -16.0809375 3.03585937 -17 3 C-17.33 2.34 -17.66 1.68 -18 1 C-17.00419922 1.03480469 -17.00419922 1.03480469 -15.98828125 1.0703125 C-10.72285665 1.17792702 -4.54156259 -1.5138542 0 0 Z " fill="#CACBCC" transform="translate(354,597)"/>
<path d="M0 0 C0.66 0.66 1.32 1.32 2 2 C-3.2535497 8.90466531 -3.2535497 8.90466531 -8 10 C-10.3125 9.625 -10.3125 9.625 -12 9 C-11.67 8.34 -11.34 7.68 -11 7 C-10.071875 6.855625 -9.14375 6.71125 -8.1875 6.5625 C-4.85084406 5.97367836 -3.41122957 5.32192477 -1 3 C-0.67 2.01 -0.34 1.02 0 0 Z " fill="#DEE0E2" transform="translate(301,538)"/>
<path d="M0 0 C-0.598125 0.268125 -1.19625 0.53625 -1.8125 0.8125 C-4.04327908 1.8893979 -4.04327908 1.8893979 -5.625 3.625 C-6.07875 4.07875 -6.5325 4.5325 -7 5 C-7.66 5 -8.32 5 -9 5 C-9.33 5.66 -9.66 6.32 -10 7 C-10.66 6.67 -11.32 6.34 -12 6 C-11.05275873 3.63189682 -10.34708866 2.24792047 -8.25 0.75 C-5.42246362 -0.19251213 -2.96006696 -0.1345485 0 0 Z " fill="#1B1D1F" transform="translate(532,498)"/>
<path d="M0 0 C0.33 0.66 0.66 1.32 1 2 C0.34 2 -0.32 2 -1 2 C-1.33 2.99 -1.66 3.98 -2 5 C-6.06277395 6.80567731 -7.58852494 7.10286876 -12 6 C-8.04 4.02 -4.08 2.04 0 0 Z " fill="#D8DCDE" transform="translate(549,453)"/>
<path d="M0 0 C0.99 0 1.98 0 3 0 C3.05395478 1.62463842 3.09277195 3.24978541 3.125 4.875 C3.14820313 5.77992188 3.17140625 6.68484375 3.1953125 7.6171875 C3 10 3 10 1 12 C0.01751476 7.9472484 -0.08159574 4.16138263 0 0 Z " fill="#4D5253" transform="translate(650,340)"/>
<path d="M0 0 C0.33 0 0.66 0 1 0 C1 3.96 1 7.92 1 12 C0.34 12 -0.32 12 -1 12 C-1 13.65 -1 15.3 -1 17 C-1.33 17 -1.66 17 -2 17 C-1.85899143 14.72886197 -1.71203245 12.45809275 -1.5625 10.1875 C-1.48128906 8.92292969 -1.40007812 7.65835937 -1.31640625 6.35546875 C-1 3 -1 3 0 0 Z " fill="#68686B" transform="translate(387,316)"/>
<path d="M0 0 C4.95 0 9.9 0 15 0 C15.33 0.66 15.66 1.32 16 2 C14.68 2 13.36 2 12 2 C11.67 2.66 11.34 3.32 11 4 C10.29875 3.690625 9.5975 3.38125 8.875 3.0625 C5.91063343 1.96697322 3.12301892 1.43577008 0 1 C0 0.67 0 0.34 0 0 Z " fill="#DEDFE0" transform="translate(444,520)"/>
<path d="M0 0 C0.99 0 1.98 0 3 0 C1.78065514 4.03321763 0.44045073 7.54269479 -2 11 C-2.66 11 -3.32 11 -4 11 C-2.7874262 7.27566618 -1.49140021 3.62197194 0 0 Z " fill="#385054" transform="translate(460,244)"/>
<path d="M0 0 C0.33 0 0.66 0 1 0 C1.61538462 7.26153846 1.61538462 7.26153846 -1.5 11 C-2.325 11.66 -3.15 12.32 -4 13 C-4.99 12.67 -5.98 12.34 -7 12 C-6.67 11.34 -6.34 10.68 -6 10 C-5.360625 9.79375 -4.72125 9.5875 -4.0625 9.375 C-1.51406151 7.67604101 -1.46138636 6.78196007 -0.75 3.875 C-0.5025 2.59625 -0.255 1.3175 0 0 Z " fill="#D2D2D3" transform="translate(431,582)"/>
<path d="M0 0 C8.57142857 0.85714286 8.57142857 0.85714286 12 3 C12 3.66 12 4.32 12 5 C10.55989519 4.74337755 9.1229313 4.46909179 7.6875 4.1875 C6.88699219 4.03667969 6.08648437 3.88585937 5.26171875 3.73046875 C2.76554413 2.92427764 1.67577894 1.97947998 0 0 Z " fill="#161818" transform="translate(281,557)"/>
<path d="M0 0 C0 3 0 3 -1.5 4.6875 C-1.995 5.120625 -2.49 5.55375 -3 6 C-1.68 7.65 -0.36 9.3 1 11 C-1.86724686 10.42655063 -2.8614515 10.1385485 -5 8 C-4.875 5.5625 -4.875 5.5625 -4 3 C-1.9375 1.1875 -1.9375 1.1875 0 0 Z " fill="#DEDFE2" transform="translate(274,543)"/>
<path d="M0 0 C1.485 0.99 1.485 0.99 3 2 C5.15274948 1.69159401 5.15274948 1.69159401 7 1 C5.68 3.31 4.36 5.62 3 8 C2.34 8 1.68 8 1 8 C0.67 5.36 0.34 2.72 0 0 Z " fill="#2A2A2C" transform="translate(308,531)"/>
<path d="M0 0 C5.01508715 1.54058233 9.6147081 3.02931839 14 6 C12 7 12 7 9.6875 6.2578125 C8.3571875 5.69707031 8.3571875 5.69707031 7 5.125 C6.113125 4.75632812 5.22625 4.38765625 4.3125 4.0078125 C2.85888227 3.37431018 1.41826082 2.70913041 0 2 C0 1.34 0 0.68 0 0 Z " fill="#2C2D2D" transform="translate(442,426)"/>
<path d="M0 0 C1.32 0.33 2.64 0.66 4 1 C2.3790787 2.17232685 0.75313167 3.3377077 -0.875 4.5 C-1.77992188 5.1496875 -2.68484375 5.799375 -3.6171875 6.46875 C-6 8 -6 8 -8 8 C-7.67 7.01 -7.34 6.02 -7 5 C-6.01 5 -5.02 5 -4 5 C-3.67 4.01 -3.34 3.02 -3 2 C-2.01 2 -1.02 2 0 2 C0 1.34 0 0.68 0 0 Z " fill="#D1D3D3" transform="translate(425,240)"/>
<path d="M0 0 C-1.32 0.33 -2.64 0.66 -4 1 C-4 1.66 -4 2.32 -4 3 C-4.99 3 -5.98 3 -7 3 C-7 3.66 -7 4.32 -7 5 C-8.32 5 -9.64 5 -11 5 C-10 2 -10 2 -6.625 0.25 C-3 -1 -3 -1 0 0 Z " fill="#0F1212" transform="translate(387,554)"/>
<path d="M0 0 C0.598125 0.20625 1.19625 0.4125 1.8125 0.625 C-1.1575 3.1 -1.1575 3.1 -4.1875 5.625 C-4.5175 4.305 -4.8475 2.985 -5.1875 1.625 C-2.1875 -0.375 -2.1875 -0.375 0 0 Z M-7.1875 2.625 C-6.5275 2.955 -5.8675 3.285 -5.1875 3.625 C-6.1775 3.625 -7.1675 3.625 -8.1875 3.625 C-7.8575 3.295 -7.5275 2.965 -7.1875 2.625 Z " fill="#252527" transform="translate(379.1875,527.375)"/>
<path d="M0 0 C2.97 0.495 2.97 0.495 6 1 C6 1.33 6 1.66 6 2 C4.35 2 2.7 2 1 2 C0.67 5.96 0.34 9.92 0 14 C-0.33 14 -0.66 14 -1 14 C-1.22331199 12.41870971 -1.42804644 10.83478911 -1.625 9.25 C-1.74101562 8.36828125 -1.85703125 7.4865625 -1.9765625 6.578125 C-2.00207817 3.77140122 -1.44843844 2.36615134 0 0 Z " fill="#E6E5E7" transform="translate(508,516)"/>
<path d="M0 0 C3.20700048 1.37442878 4.29973362 2.37455603 6.0625 5.3125 C4.60182801 4.86167531 3.14401968 4.40156463 1.6875 3.9375 C0.87539063 3.68226563 0.06328125 3.42703125 -0.7734375 3.1640625 C-2.9375 2.3125 -2.9375 2.3125 -4.9375 0.3125 C-2.9375 -0.6875 -2.9375 -0.6875 0 0 Z " fill="#B0B3B2" transform="translate(445.9375,442.6875)"/>
<path d="M0 0 C-3.33333333 2.66666667 -6.66666667 5.33333333 -10 8 C-10.3125 5.6875 -10.3125 5.6875 -10 3 C-6.71110421 0.27491491 -4.21712557 -0.36146791 0 0 Z " fill="#292B2C" transform="translate(582,403)"/>
<path d="M0 0 C0.33 0 0.66 0 1 0 C1 2.31 1 4.62 1 7 C1.66 7.33 2.32 7.66 3 8 C1.35 8 -0.3 8 -2 8 C-2.33 6.02 -2.66 4.04 -3 2 C-2.01 2.33 -1.02 2.66 0 3 C0 2.01 0 1.02 0 0 Z " fill="#1C2225" transform="translate(539,510)"/>
<path d="M0 0 C3 3.75 3 3.75 3 6 C3.66 6 4.32 6 5 6 C5.33 7.65 5.66 9.3 6 11 C5.01 11 4.02 11 3 11 C2.49384702 9.73160474 1.99530901 8.46016898 1.5 7.1875 C1.2215625 6.47980469 0.943125 5.77210938 0.65625 5.04296875 C0 3 0 3 0 0 Z " fill="#2D2D2D" transform="translate(378,385)"/>
<path d="M0 0 C0.33 0.99 0.66 1.98 1 3 C-1.87164566 5.70272533 -3.30991841 6.94791837 -7.3125 7.25 C-8.199375 7.1675 -9.08625 7.085 -10 7 C-8.17725047 5.78483364 -6.3280819 4.60668208 -4.4375 3.5 C-1.93582181 2.0902355 -1.93582181 2.0902355 0 0 Z " fill="#C8C8CA" transform="translate(503,584)"/>
<path d="M0 0 C2.25 0.125 2.25 0.125 5 1 C7.3125 4.0625 7.3125 4.0625 9 7 C7.35 6.67 5.7 6.34 4 6 C3.67 4.68 3.34 3.36 3 2 C2.01 2 1.02 2 0 2 C0 1.34 0 0.68 0 0 Z " fill="#CFD1D2" transform="translate(520,577)"/>
<path d="M0 0 C0.66 0.33 1.32 0.66 2 1 C0.8758824 2.29243468 -0.24932592 3.58392075 -1.375 4.875 C-2.00148438 5.59429688 -2.62796875 6.31359375 -3.2734375 7.0546875 C-4.47426834 8.4076598 -5.7208345 9.7208345 -7 11 C-7.33 10.01 -7.66 9.02 -8 8 C-6.85546875 6.2109375 -6.85546875 6.2109375 -5.1875 4.375 C-4.64480469 3.76398437 -4.10210937 3.15296875 -3.54296875 2.5234375 C-2 1 -2 1 0 0 Z " fill="#E0E1E1" transform="translate(373,557)"/>
<path d="M0 0 C-1 2 -1 2 -3.8125 3.125 C-7 4 -7 4 -11 4 C-11 3.34 -11 2.68 -11 2 C-7.17679443 0.57741188 -4.08718695 -0.24042276 0 0 Z " fill="#292D2F" transform="translate(539,457)"/>
<path d="M0 0 C0 0.66 0 1.32 0 2 C-4.43076923 4.09230769 -4.43076923 4.09230769 -7.3125 3.625 C-7.869375 3.41875 -8.42625 3.2125 -9 3 C-7.14340032 -0.71319936 -3.69365381 -0.09982848 0 0 Z " fill="#1C2027" transform="translate(453,352)"/>
<path d="M0 0 C2.97 0.495 2.97 0.495 6 1 C6 1.99 6 2.98 6 4 C4.02 4.33 2.04 4.66 0 5 C0 3.35 0 1.7 0 0 Z " fill="#262828" transform="translate(533,344)"/>
<path d="M0 0 C0.66 0 1.32 0 2 0 C0.79618552 2.49361571 -0.45428722 4.68143083 -2 7 C-2.38499891 8.65549531 -2.72793135 10.3222433 -3 12 C-4.1875 10.375 -4.1875 10.375 -5 8 C-3.69826722 4.74566805 -2.48096737 2.48096737 0 0 Z " fill="#1C2728" transform="translate(521,297)"/>
<path d="M0 0 C7.66742597 5.96583144 7.66742597 5.96583144 9 11 C5.20596616 9.73532205 4.93315707 8.38302487 3 5 C2.443125 4.443125 1.88625 3.88625 1.3125 3.3125 C0.879375 2.879375 0.44625 2.44625 0 2 C0 1.34 0 0.68 0 0 Z " fill="#272A2B" transform="translate(454,277)"/>
<path d="M0 0 C0.639375 0.474375 1.27875 0.94875 1.9375 1.4375 C5.92181519 3.47031387 9.58494074 3.7210529 14 4 C14 4.33 14 4.66 14 5 C9.71 5 5.42 5 1 5 C0.67 3.35 0.34 1.7 0 0 Z " fill="#181A1C" transform="translate(385,575)"/>
<path d="M0 0 C0.33 0.99 0.66 1.98 1 3 C0.01 3.33 -0.98 3.66 -2 4 C-2.80212628 5.87387216 -2.80212628 5.87387216 -3.1875 8.0625 C-3.34605469 8.79597656 -3.50460938 9.52945313 -3.66796875 10.28515625 C-3.83232422 11.13400391 -3.83232422 11.13400391 -4 12 C-4.33 12 -4.66 12 -5 12 C-5.35338623 9.03155565 -5.5417682 6.84401782 -3.88671875 4.265625 C-2.64496832 2.79651181 -1.32662082 1.39295186 0 0 Z " fill="#191A19" transform="translate(256,536)"/>
<path d="M0 0 C0.33 0.66 0.66 1.32 1 2 C0.01 2 -0.98 2 -2 2 C-2.2475 2.61875 -2.495 3.2375 -2.75 3.875 C-4.20628639 6.35068687 -5.37812506 6.95125002 -8 8 C-6.92598892 5.08482708 -6.22189824 3.22189824 -4 1 C-1.875 0.375 -1.875 0.375 0 0 Z " fill="#A4A69F" transform="translate(694,523)"/>
<path d="M0 0 C2.33936818 2.12669835 3.80653848 4.06224856 5 7 C5 7.99 5 8.98 5 10 C4.34 10 3.68 10 3 10 C0 3.375 0 3.375 0 0 Z " fill="#2B3433" transform="translate(520,313)"/>
<path d="M0 0 C0.99 0.99 1.98 1.98 3 3 C0.47524538 4.26237731 -1.31200466 4.09856404 -4.125 4.0625 C-5.03507813 4.05347656 -5.94515625 4.04445313 -6.8828125 4.03515625 C-7.58148438 4.02355469 -8.28015625 4.01195312 -9 4 C-9.33 3.34 -9.66 2.68 -10 2 C-8.72125 2.04125 -7.4425 2.0825 -6.125 2.125 C-3.98128508 2.24212873 -3.98128508 2.24212873 -2 2 C-1.34 1.34 -0.68 0.68 0 0 Z " fill="#252828" transform="translate(234,600)"/>
<path d="M0 0 C0.66 0.33 1.32 0.66 2 1 C1.67 6.28 1.34 11.56 1 17 C0.34 16.67 -0.32 16.34 -1 16 C-1.02685095 13.52076199 -1.04676547 11.0418116 -1.0625 8.5625 C-1.07506836 7.50192383 -1.07506836 7.50192383 -1.08789062 6.41992188 C-1.09653588 4.61306441 -1.05220011 2.80612397 -1 1 C-0.67 0.67 -0.34 0.34 0 0 Z " fill="#919796" transform="translate(698,531)"/>
<path d="M0 0 C-1 2 -2 4 -3 6 C-3.66 6 -4.32 6 -5 6 C-5.33 4.35 -5.66 2.7 -6 1 C-3.92446352 0.4465236 -2.15634036 0 0 0 Z " fill="#EEEFF1" transform="translate(462,521)"/>
<path d="M0 0 C0.66 0 1.32 0 2 0 C1.67 4.29 1.34 8.58 1 13 C-1.3638665 8.27226701 -1.25393971 6.16344069 -1 1 C-0.67 0.67 -0.34 0.34 0 0 Z " fill="#9A9E9F" transform="translate(774,507)"/>
<path d="M0 0 C0.66 0.33 1.32 0.66 2 1 C0.40233897 1.86627399 -1.20339944 2.71766465 -2.8125 3.5625 C-3.70582031 4.03816406 -4.59914063 4.51382812 -5.51953125 5.00390625 C-8 6 -8 6 -11 5 C-10.67 4.34 -10.34 3.68 -10 3 C-8.00371336 2.6451046 -6.00309329 2.31421071 -4 2 C-3.2575 1.62875 -2.515 1.2575 -1.75 0.875 C-0.88375 0.441875 -0.88375 0.441875 0 0 Z " fill="#2C3133" transform="translate(544,433)"/>
<path d="M0 0 C0 0.99 0 1.98 0 3 C-3.96 4.98 -3.96 4.98 -8 7 C-4.5 0 -4.5 0 0 0 Z " fill="#2D3231" transform="translate(560,413)"/>
<path d="M0 0 C0.33 0 0.66 0 1 0 C1.25 3.3125 1.25 3.3125 1 7 C-0.8125 9 -0.8125 9 -3 10 C-3.99 9.67 -4.98 9.34 -6 9 C-5.38125 8.814375 -4.7625 8.62875 -4.125 8.4375 C-0.94397134 6.28562767 -0.80548053 3.62466237 0 0 Z " fill="#B4B6B9" transform="translate(573,392)"/>
<path d="M0 0 C0.66 0.33 1.32 0.66 2 1 C-3 7.57142857 -3 7.57142857 -8 9 C-7.04270084 7.87411986 -6.08412105 6.7493285 -5.125 5.625 C-4.59132813 4.99851562 -4.05765625 4.37203125 -3.5078125 3.7265625 C-2.38567993 2.44163349 -1.20628025 1.20628025 0 0 Z " fill="#333534" transform="translate(580,344)"/>
<path d="M0 0 C1.18414294 3.55242882 0.69535532 4.69830562 -0.4375 8.1875 C-0.72496094 9.08855469 -1.01242187 9.98960937 -1.30859375 10.91796875 C-1.53675781 11.60503906 -1.76492188 12.29210937 -2 13 C-2.66 12.67 -3.32 12.34 -4 12 C-4 11.01 -4 10.02 -4 9 C-3.34 9 -2.68 9 -2 9 C-1.7834375 7.329375 -1.7834375 7.329375 -1.5625 5.625 C-1 2 -1 2 0 0 Z " fill="#CED0CF" transform="translate(374,309)"/>
<path d="M0 0 C0.99 0 1.98 0 3 0 C4.60725635 3.21451269 4.05748185 6.43612536 4 10 C3.01 10.495 3.01 10.495 2 11 C2.04125 10.113125 2.0825 9.22625 2.125 8.3125 C2.00102754 5.02722987 1.38612096 2.94550705 0 0 Z " fill="#1D1F20" transform="translate(554,569)"/>
<path d="M0 0 C0.33 0 0.66 0 1 0 C1 1.98 1 3.96 1 6 C-2.3 6 -5.6 6 -9 6 C-9 5.67 -9 5.34 -9 5 C-7.329375 4.87625 -7.329375 4.87625 -5.625 4.75 C-1.94246056 4.42126213 -1.94246056 4.42126213 -0.5625 1.9375 C-0.376875 1.298125 -0.19125 0.65875 0 0 Z " fill="#979D9A" transform="translate(861,521)"/>
<path d="M0 0 C1.98362069 2.91708924 1.9876191 4.12380904 1.625 7.75 C1.41875 8.8225 1.2125 9.895 1 11 C-1 9 -1 9 -1.23046875 7.08984375 C-1.11111111 1.11111111 -1.11111111 1.11111111 0 0 Z " fill="#1C1C1F" transform="translate(509,519)"/>
<path d="M0 0 C0.66 0.33 1.32 0.66 2 1 C1.01 2.485 1.01 2.485 0 4 C-3.625 4.6875 -3.625 4.6875 -7 5 C-4.88437775 2.67281553 -2.94982021 1.14186589 0 0 Z " fill="#222625" transform="translate(540,444)"/>
<path d="M0 0 C2.38672669 2.96283313 4.7353371 5.94270509 7 9 C4.08482708 7.92598892 2.22189824 7.22189824 0 5 C-0.125 2.375 -0.125 2.375 0 0 Z " fill="#555656" transform="translate(630,357)"/>
<path d="M0 0 C0.33 0 0.66 0 1 0 C1.3125 3.1875 1.3125 3.1875 1 7 C-1.5 9.9375 -1.5 9.9375 -4 12 C-3.625 9.5625 -3.625 9.5625 -3 7 C-2.34 6.67 -1.68 6.34 -1 6 C-0.34227572 2.97065509 -0.34227572 2.97065509 0 0 Z " fill="#1C292A" transform="translate(532,278)"/>
<path d="M0 0 C-0.66 1.32 -1.32 2.64 -2 4 C-2.99 3.67 -3.98 3.34 -5 3 C-2.25 0 -2.25 0 0 0 Z M-7 4 C-6.34 4 -5.68 4 -5 4 C-5.66 5.32 -6.32 6.64 -7 8 C-7.66 7.34 -8.32 6.68 -9 6 C-8.34 5.34 -7.68 4.68 -7 4 Z " fill="#464946" transform="translate(421,247)"/>
<path d="M0 0 C0.66 0.33 1.32 0.66 2 1 C0.41641358 4.16717283 -0.45263699 5.73268318 -3.6875 7.3125 C-4.450625 7.539375 -5.21375 7.76625 -6 8 C-4.02 5.36 -2.04 2.72 0 0 Z " fill="#99999A" transform="translate(877,557)"/>
<path d="M0 0 C0.99 0.33 1.98 0.66 3 1 C2.34 4.3 1.68 7.6 1 11 C-1.78637633 6.8204355 -0.79562512 4.85331323 0 0 Z " fill="#949493" transform="translate(875,538)"/>
<path d="M0 0 C4.29 0 8.58 0 13 0 C10.09907498 1.93395001 9.10325263 2.30131941 5.8125 2.625 C4.554375 2.74875 3.29625 2.8725 2 3 C1.34 2.01 0.68 1.02 0 0 Z " fill="#CED0D3" transform="translate(342,541)"/>
<path d="M0 0 C4.40114397 0.50298788 6.71195019 2.08772731 10 5 C9.01 5.33 8.02 5.66 7 6 C6.38125 5.2884375 6.38125 5.2884375 5.75 4.5625 C3.817815 2.83733482 2.51807725 2.43415125 0 2 C0 1.34 0 0.68 0 0 Z " fill="#212325" transform="translate(289,530)"/>
<path d="M0 0 C2.31 1.98 4.62 3.96 7 6 C6.67 6.66 6.34 7.32 6 8 C5.38125 7.505 4.7625 7.01 4.125 6.5 C2.16119096 4.80777227 2.16119096 4.80777227 0 5 C-0.33 4.01 -0.66 3.02 -1 2 C-0.67 1.34 -0.34 0.68 0 0 Z " fill="#26282A" transform="translate(411,398)"/>
<path d="M0 0 C3.00617269 3.00617269 2.59585316 5.82381598 3 10 C2.34 10 1.68 10 1 10 C-0.60725635 6.78548731 -0.05748185 3.56387464 0 0 Z " fill="#2B2B2B" transform="translate(569,364)"/>
<path d="M0 0 C2.64 0.33 5.28 0.66 8 1 C8.33 1.99 8.66 2.98 9 4 C7.68528432 3.71848913 6.37324233 3.42446661 5.0625 3.125 C3.96615234 2.88136719 3.96615234 2.88136719 2.84765625 2.6328125 C1 2 1 2 0 0 Z " fill="#282E2A" transform="translate(549,349)"/>
<path d="M0 0 C1.5 1.0625 1.5 1.0625 3 3 C3.1875 6.6875 3.1875 6.6875 3 10 C2.67 8.68 2.34 7.36 2 6 C1.34 6 0.68 6 0 6 C-1 3 -1 3 0 0 Z " fill="#323637" transform="translate(525,324)"/>
<path d="M0 0 C-3.99560608 2.83022097 -7.42737323 1.76210446 -12 1 C-8.00439392 -1.83022097 -4.57262677 -0.76210446 0 0 Z " fill="#31353A" transform="translate(420,279)"/>
<path d="M0 0 C0.165 0.639375 0.33 1.27875 0.5 1.9375 C1.781786 4.16119241 1.781786 4.16119241 3.9140625 4.48828125 C5.93575155 4.7275978 7.96841939 4.86893028 10 5 C10 5.33 10 5.66 10 6 C3.6 6.36923077 3.6 6.36923077 0.5625 4.5 C0.046875 4.005 -0.46875 3.51 -1 3 C-0.67 2.01 -0.34 1.02 0 0 Z " fill="#1D1E1F" transform="translate(179,600)"/>
<path d="M0 0 C2.88437779 1.29299694 4.87219421 2.65941363 7 5 C5.68 5.33 4.36 5.66 3 6 C0 2.25 0 2.25 0 0 Z " fill="#C4C5C5" transform="translate(329,593)"/>
<path d="M0 0 C2.97 0.99 5.94 1.98 9 3 C8.67 3.66 8.34 4.32 8 5 C5.125 4.75 5.125 4.75 2 4 C1.34 2.68 0.68 1.36 0 0 Z " fill="#CED0CF" transform="translate(530,584)"/>
<path d="M0 0 C2 4 2 4 1.25 6.6875 C0 9 0 9 -2 10 C-1.34 6.7 -0.68 3.4 0 0 Z " fill="#C6C8C8" transform="translate(306,577)"/>
<path d="M0 0 C1.65 0 3.3 0 5 0 C5.33 1.65 5.66 3.3 6 5 C2.83884224 3.63016497 2.0072908 3.0109362 0 0 Z " fill="#87898B" transform="translate(687,556)"/>
<path d="M0 0 C-4.625 3 -4.625 3 -8 3 C-7.67 2.01 -7.34 1.02 -7 0 C-3.86650268 -1.04449911 -3.01031744 -0.93423645 0 0 Z " fill="#2B2F32" transform="translate(548,454)"/>
<path d="M0 0 C1.98 0.66 3.96 1.32 6 2 C4 4 4 4 1.375 4.125 C0.59125 4.08375 -0.1925 4.0425 -1 4 C-0.67 2.68 -0.34 1.36 0 0 Z " fill="#D5D8D7" transform="translate(445,439)"/>
<path d="M0 0 C2.7972908 2.06756277 3.02692273 3.14440371 3.6875 6.6875 C3.790625 7.780625 3.89375 8.87375 4 10 C2 9 2 9 0.875 6.6875 C0 4 0 4 0 0 Z " fill="#292929" transform="translate(601,300)"/>
<path d="M0 0 C0.66 0.66 1.32 1.32 2 2 C0.35 3.65 -1.3 5.3 -3 7 C-3.66 6.34 -4.32 5.68 -5 5 C-3.35 3.35 -1.7 1.7 0 0 Z " fill="#464847" transform="translate(407,258)"/>
<path d="M0 0 C4.67461851 -0.32613618 7.16674383 0.29417212 11 3 C7.25 4.125 7.25 4.125 5 3 C5 2.34 5 1.68 5 1 C3.35 1 1.7 1 0 1 C0 0.67 0 0.34 0 0 Z " fill="#949695" transform="translate(731,523)"/>
<path d="M0 0 C0.99 0.33 1.98 0.66 3 1 C3.33 2.65 3.66 4.3 4 6 C3.01 6.33 2.02 6.66 1 7 C0.67 4.69 0.34 2.38 0 0 Z " fill="#232325" transform="translate(337,510)"/>
</svg>
